<mxfile host="app.diagrams.net" agent="Mozilla/5.0 (Windows NT 10.0; Win64; x64) AppleWebKit/537.36 (KHTML, like Gecko) Chrome/126.0.0.0 Safari/537.36" version="24.7.7">
  <diagram name="Copy of fabric- dy-main" id="UfWAzZPQiMHTV4e2Q_mx">
    <mxGraphModel dx="1786" dy="520" grid="1" gridSize="10" guides="1" tooltips="1" connect="1" arrows="1" fold="1" page="1" pageScale="1" pageWidth="850" pageHeight="1100" math="0" shadow="0">
      <root>
        <mxCell id="8syRLafnocFv6qWgwPiF-0" />
        <mxCell id="8syRLafnocFv6qWgwPiF-1" parent="8syRLafnocFv6qWgwPiF-0" />
        <mxCell id="ao6XBDKFaay5tvUXJDp1-13" value="" style="rounded=0;whiteSpace=wrap;html=1;dashed=1;" parent="8syRLafnocFv6qWgwPiF-1" vertex="1">
          <mxGeometry x="-350" y="750" width="1360" height="480" as="geometry" />
        </mxCell>
        <mxCell id="ao6XBDKFaay5tvUXJDp1-5" value="" style="rounded=0;whiteSpace=wrap;html=1;" parent="8syRLafnocFv6qWgwPiF-1" vertex="1">
          <mxGeometry x="-76" y="813" width="326" height="227" as="geometry" />
        </mxCell>
        <mxCell id="8syRLafnocFv6qWgwPiF-3" value="" style="rounded=0;whiteSpace=wrap;html=1;dashed=1;dashPattern=8 8;perimeterSpacing=6;strokeWidth=2;" parent="8syRLafnocFv6qWgwPiF-1" vertex="1">
          <mxGeometry x="380" y="770" width="590" height="350" as="geometry" />
        </mxCell>
        <mxCell id="8syRLafnocFv6qWgwPiF-5" value="Web Application" style="text;html=1;align=center;verticalAlign=middle;resizable=0;points=[];autosize=1;strokeColor=none;fillColor=none;" parent="8syRLafnocFv6qWgwPiF-1" vertex="1">
          <mxGeometry x="-270" y="958" width="110" height="30" as="geometry" />
        </mxCell>
        <mxCell id="8syRLafnocFv6qWgwPiF-8" value="Raft Ordering Service" style="rounded=0;whiteSpace=wrap;html=1;" parent="8syRLafnocFv6qWgwPiF-1" vertex="1">
          <mxGeometry x="436" y="790" width="430" height="40" as="geometry" />
        </mxCell>
        <mxCell id="8syRLafnocFv6qWgwPiF-9" value="" style="rounded=0;whiteSpace=wrap;html=1;" parent="8syRLafnocFv6qWgwPiF-1" vertex="1">
          <mxGeometry x="448" y="866" width="120" height="240" as="geometry" />
        </mxCell>
        <mxCell id="8syRLafnocFv6qWgwPiF-10" value="" style="sketch=0;outlineConnect=0;fontColor=#232F3E;gradientColor=none;fillColor=#ED7100;strokeColor=none;dashed=0;verticalLabelPosition=bottom;verticalAlign=top;align=center;html=1;fontSize=12;fontStyle=0;aspect=fixed;pointerEvents=1;shape=mxgraph.aws4.ecs_service;" parent="8syRLafnocFv6qWgwPiF-1" vertex="1">
          <mxGeometry x="484" y="891" width="39.81" height="49" as="geometry" />
        </mxCell>
        <mxCell id="8syRLafnocFv6qWgwPiF-11" value="Peer" style="text;html=1;align=center;verticalAlign=middle;resizable=0;points=[];autosize=1;strokeColor=none;fillColor=none;" parent="8syRLafnocFv6qWgwPiF-1" vertex="1">
          <mxGeometry x="476.80999999999995" y="941" width="50" height="30" as="geometry" />
        </mxCell>
        <mxCell id="8syRLafnocFv6qWgwPiF-12" value="" style="image;aspect=fixed;perimeter=ellipsePerimeter;html=1;align=center;shadow=0;dashed=0;fontColor=#4277BB;labelBackgroundColor=default;fontSize=12;spacingTop=3;image=img/lib/ibm/blockchain/certificate_authority.svg;" parent="8syRLafnocFv6qWgwPiF-1" vertex="1">
          <mxGeometry x="481" y="972" width="50" height="50" as="geometry" />
        </mxCell>
        <mxCell id="8syRLafnocFv6qWgwPiF-13" value="" style="shape=image;verticalLabelPosition=bottom;labelBackgroundColor=default;verticalAlign=top;aspect=fixed;imageAspect=0;image=data:image/png,iVBORw0KGgoAAAANSUhEUgAAAT4AAACfCAMAAABX0UX9AAAAwFBMVEX////kJSgAAADkHyLjDhPjFBjpW13+8/P97+/++fn2xsb0sLDpU1XjFxvkHiH74+TmP0Kzs7PugoSJiYmkpKT39/dycnLiAABbW1vi4uKtra3q6upiYmI+Pj7ud3hLS0vQ0NDZ2dnx8fERERGUlJTBwcEmJibn5+cwMDDAwMBHR0d6enrKysqMjIz629zramzlLC8ZGRnxm5zqYWPypKT2vr/vjY4iIiL4zMzoSEppaWl+fn7wlJX3wsPrcHHmNjnXEzUPAAAKN0lEQVR4nO2cCXeiPBRAUXAX6oJaXCouda9Wazsu0+n//1cfSVgSErAKo9/Yd0/PnFYEkpv9EUaSAAAAAAAAAAAAAAAAAAAAAAAAAAAAAAAAAAAAAAAAAAAAAAAAAAAAAOB/Qi6XuYjcrRN+ezKfm8qft/QlvK0qvwvZW2fghmQK6YaSUjWMjH7wP5r9m/079Qf9BQs1pTRK259qsLBPaYmoyEpp8yNb8R9FjiyPCEw/3DovVyf7psQiD6GWlrfOzrV5SsVmL5HQSrfOzpUpxFf3EMrHrTN0VTJf8fR7LvKPar4xV75EIlW5dZauSO4t+oyFRf76QdO/Zdxt1xo9Pm+dqeuRj7vtWoPH9taZuh6bOGctBO3PrTN1PZ7U2PXJxZ+zdCvG3vVZY8fP0bdXYggWMPJURf05+t4L25UWU8TAQm18VbaFW2fquuS2pXh6QFmuLE/WvNrYMIxx/xoZuxYPxTj8yYn3k3cyq+3JIDkYzebDv2Sw2Ww+i29tHWmWCVOTu7vR9LC+sOidvNMy//6ex0vUTCmG9qss2YsKsjZKUrRPp/ACrAt3a6IDxyTLTDeZtCU5DouQ++RXX6qiqF9PKK/56NVPRbGW5eo1pSipr/Q734qNti95Az2CpiCs6z4K9VU5PYMDVYBlXl8yOQy6S67S0HCNk1MoRpJbRR2A5S/rMssEKQZZa6z8S9/eAKfo11wvN19mJHn1WIwxnKHPwitAob4gf7mVt1rTihlJ2kZdvWkr66p7rxDUUoa5o8k22NYQ//0SizKaUH1to4cxp8P6iC1ApG+yMG2em9VHfHwqvMmWXqwpeaveNCLqS1ltd0dfhI1ctTpsYUvSYoI+MaMLYwnVR9d2gxRg1f4T6evQ36/p6HBXdKksU9dUK6O5qPpQpIBdQTd21B3rKC3skDheByUvCt/WZwnEBWiPD1gfe+ILOiy61obRp71ZH0XWZ82WP5gBSKViBz1RR9KkUh8bZ+iTeqgB2+O0QF8voHn4gqRy0fos6tChWJO+CqNPLnmPLdGsYcblasQ57Rvj7zhizmgxf3v6xmPmhgJ9dAEK9I0n4s5v+crkHOuLGjdFTZXVl1Dzzg2NtTAhVaa/6Ze7ZD4xp2pkuT6vU35M60+vC+hPyRm/6qabcaKv1cQNM3kwQ/VJ6FvtIH24vzb9p1hdPDvMYn1RYy+NB06fFzidinuRvmmNgq6ojjdfOBjOp6jaGt4ZTbq+PlNnPDrXQb9LzxN+6iHUh4aPSZA+45e47ysI9H1EC5zKXxm+9rljL5owz/l00NTZCZdTxaq8Pmf4HrJnLFx9B2YOV6WuxOl7RrXdDNBXxkXB85tVhfXlo3V+6pPE6UNTQQKqDM1Qe0fSCMvmYkgapHlKn+6cYZYPaEY+6jn6OtbtuvrCMF/w3K4Xog9XsLJY33gUMLKxIyTRR095L0D55PXJaft+/XXSP2vxUaYbIBbT6YfrM/CX7EN4jHx09HllhacmwxB9XsFy8z7ce1a5EyQuRI/1SbtUhN5PQZWP07eXvNwNQgMEXvZdG8dwfYckPUMxB873mKaP1zr2t8T6Os4Fkb5B16GzxtcRL8qF+qStenH9U96yIn3OhpcFamaGMCmelQn1BdStrWth+rBh6sDBOYA+b7sf16wqNPHqMa+vS+vzMQloMGJ90ue+oWryuWiaon6Q+EqQPtRBj8ImdIckOwHsT5wuKUifzlhCo3C34+ozPX3WynXQulCfdQeTOyFYn5T7rLwV96Wz2Kf/uNtKw2rfOqTxtlBTYQKY86QdTgjS9+j4dUVJpI2iWkOVFBrzw/TN6L7Pa7zdmR2aFDXfIH2I7MN5ZKnAXpA+1AOR6YGYMcozM+pNnT4rSN8o6IrWF7pUSZzS12GGjlbNoW8sSHxVcJMwfVEI0jcWLzpcUEd2YD4ZO9OIAH21NVvJPJLsmveUPnddJlrzooOC0HWwvtxFOGcH6cOLW8G8r3Wcz+t90jeys2qk71eIvvHAHRIi6UMxXDInEOgjMUqTu0WAvt326aI3E542nyf0zYQlT4ZP6RJ9xoDP7CX6kLRRLUifRE0bT+l7WKnk1YSzX0xQU6n0MlQfXl/xucWJtzW2mSPGicbbR7WPDbVcpA+NQI9uWjh9da5XCdKXSUcJ15PQfKA+3Ar4zs9ZChvc0FEOGDp0Z+hYB43lZ+lDldzuVYT6jly5BunbRHvYofwO04emX3wnPHaktlDfyAwE7kTQp6/q6Ov4ysNw5JylD91mPQ7Wh5J9/Ja+iPE+ec9HXDx9JC7pn0OhDJH+HzUSenmJV+vYzpDR13fXWFVfs9Id3+fow4tr+75CfeJGI9AX+VlHKhumT0KRDV/4AgcBh27a11QlQ41m4OawzJ6C9aGZOF0t0eqhd6Y+8mS8FqwPlZ1grS7Q9xBVXyNcH3lOSdc/nHgnwWiIG7kTkbL3XfTrzPkch5fIAdwdzNzBAz3VIfGSb+sz2SeRAn24cvJt9xb6SFq8oPCYndPjatUhS/QaPmQvHdAMxckCebRpe8XVr0vqH3mmOD2tr20YY/TTex7aWx7cAsX60FHM2DB1olcwvIv6voj65NfQvs/1R3YZ2CFRqlmSo5OXpn7Avw2chomj0KNhuTzEkzAvx/gxYrLdLJePeP+C/cQ9VB+HlwDxLgNhuFSkL+KzDm2VO6FPKo98SRvRadOZQzO3xxlPqI+HBlVhXpgz5rWz9Q3qVOcp1NcxBfaE+iK+H4OeUwaGSx0TcyZtR7ZdmF3v0Au1HjM8fzqen3iPiqjycBthkpkh4S5SrK+jM4OCYIfVQBeua7hs4lXHU4RNpnLqI/C6NDW93h2h/X3duSAS1BvWH2fd9rHpS/X0+DjrdA96H11Ap3NtVg/dTrddpdbTvv19U+sEcrmF7lGecsFbQ2dpTgMDlB+CR0VSZvMqW8uvC1ATpXdRsWhpwb37obtLa/2+qMRr/VbQGdYRcR35e4ietFlk8oWLeHd2QwY+absvtoLnvHHgf877FNN1/2e8X0nfnb7buxTryyzzl7GzH3b4N2nc6SsKy4RAX65QRPuSLyCV2G9xxNmnL3Wn71Y+sBvpib5K4/JtBnIDjxI+fYldeDL+VXwbwbG+92hbhPBuquD9ffcFu8kF60tH2yKkFblFm3Dadxd8MgGCOEIGgv19qd+3zubfIsfVvmxkfXm/PuV+/0+NCt3TaXHE+7i9zVr6fl9MZXY34zdaIte+ne/FhNTpFwT/Xej/eknZWB+8RtzbrGTZ12K0/ck0/MNk9l5D09AE43e0eJ/2hpqqt0NVe73fng/x4L4D3UCVT8ru1QAz30EmLyHsXm1/2r1OmV2yTw1FVa1lmj2/WBYv2RyJN0iqSspe3u726KJKI33fdQ/zsP2ofBS8Fx8/P1bFS0g/bbyL7DaVyuYHyBORy15C5vSFAQAAAAAAAAAAAAAAAAAAAAAAAAAAAAAAAAAAAAAAAAAAAAAAAAAAAAD4Pv8BefP95ZXuVWYAAAAASUVORK5CYII=;" parent="8syRLafnocFv6qWgwPiF-1" vertex="1">
          <mxGeometry x="468" y="1056" width="80" height="40" as="geometry" />
        </mxCell>
        <mxCell id="8syRLafnocFv6qWgwPiF-14" value="Fabric CA" style="text;html=1;align=center;verticalAlign=middle;resizable=0;points=[];autosize=1;strokeColor=none;fillColor=none;" parent="8syRLafnocFv6qWgwPiF-1" vertex="1">
          <mxGeometry x="463.90999999999997" y="1022" width="80" height="30" as="geometry" />
        </mxCell>
        <mxCell id="8syRLafnocFv6qWgwPiF-15" value="" style="rounded=0;whiteSpace=wrap;html=1;" parent="8syRLafnocFv6qWgwPiF-1" vertex="1">
          <mxGeometry x="607" y="864" width="120" height="240" as="geometry" />
        </mxCell>
        <mxCell id="8syRLafnocFv6qWgwPiF-16" value="" style="sketch=0;outlineConnect=0;fontColor=#232F3E;gradientColor=none;fillColor=#ED7100;strokeColor=none;dashed=0;verticalLabelPosition=bottom;verticalAlign=top;align=center;html=1;fontSize=12;fontStyle=0;aspect=fixed;pointerEvents=1;shape=mxgraph.aws4.ecs_service;" parent="8syRLafnocFv6qWgwPiF-1" vertex="1">
          <mxGeometry x="643" y="889" width="39.81" height="49" as="geometry" />
        </mxCell>
        <mxCell id="8syRLafnocFv6qWgwPiF-17" value="Peer" style="text;html=1;align=center;verticalAlign=middle;resizable=0;points=[];autosize=1;strokeColor=none;fillColor=none;" parent="8syRLafnocFv6qWgwPiF-1" vertex="1">
          <mxGeometry x="635.81" y="939" width="50" height="30" as="geometry" />
        </mxCell>
        <mxCell id="8syRLafnocFv6qWgwPiF-18" value="" style="image;aspect=fixed;perimeter=ellipsePerimeter;html=1;align=center;shadow=0;dashed=0;fontColor=#4277BB;labelBackgroundColor=default;fontSize=12;spacingTop=3;image=img/lib/ibm/blockchain/certificate_authority.svg;" parent="8syRLafnocFv6qWgwPiF-1" vertex="1">
          <mxGeometry x="640" y="970" width="50" height="50" as="geometry" />
        </mxCell>
        <mxCell id="8syRLafnocFv6qWgwPiF-19" value="" style="shape=image;verticalLabelPosition=bottom;labelBackgroundColor=default;verticalAlign=top;aspect=fixed;imageAspect=0;image=data:image/png,iVBORw0KGgoAAAANSUhEUgAAAT4AAACfCAMAAABX0UX9AAAAwFBMVEX////kJSgAAADkHyLjDhPjFBjpW13+8/P97+/++fn2xsb0sLDpU1XjFxvkHiH74+TmP0Kzs7PugoSJiYmkpKT39/dycnLiAABbW1vi4uKtra3q6upiYmI+Pj7ud3hLS0vQ0NDZ2dnx8fERERGUlJTBwcEmJibn5+cwMDDAwMBHR0d6enrKysqMjIz629zramzlLC8ZGRnxm5zqYWPypKT2vr/vjY4iIiL4zMzoSEppaWl+fn7wlJX3wsPrcHHmNjnXEzUPAAAKN0lEQVR4nO2cCXeiPBRAUXAX6oJaXCouda9Wazsu0+n//1cfSVgSErAKo9/Yd0/PnFYEkpv9EUaSAAAAAAAAAAAAAAAAAAAAAAAAAAAAAAAAAAAAAAAAAAAAAAAAAAAAAOB/Qi6XuYjcrRN+ezKfm8qft/QlvK0qvwvZW2fghmQK6YaSUjWMjH7wP5r9m/079Qf9BQs1pTRK259qsLBPaYmoyEpp8yNb8R9FjiyPCEw/3DovVyf7psQiD6GWlrfOzrV5SsVmL5HQSrfOzpUpxFf3EMrHrTN0VTJf8fR7LvKPar4xV75EIlW5dZauSO4t+oyFRf76QdO/Zdxt1xo9Pm+dqeuRj7vtWoPH9taZuh6bOGctBO3PrTN1PZ7U2PXJxZ+zdCvG3vVZY8fP0bdXYggWMPJURf05+t4L25UWU8TAQm18VbaFW2fquuS2pXh6QFmuLE/WvNrYMIxx/xoZuxYPxTj8yYn3k3cyq+3JIDkYzebDv2Sw2Ww+i29tHWmWCVOTu7vR9LC+sOidvNMy//6ex0vUTCmG9qss2YsKsjZKUrRPp/ACrAt3a6IDxyTLTDeZtCU5DouQ++RXX6qiqF9PKK/56NVPRbGW5eo1pSipr/Q734qNti95Az2CpiCs6z4K9VU5PYMDVYBlXl8yOQy6S67S0HCNk1MoRpJbRR2A5S/rMssEKQZZa6z8S9/eAKfo11wvN19mJHn1WIwxnKHPwitAob4gf7mVt1rTihlJ2kZdvWkr66p7rxDUUoa5o8k22NYQ//0SizKaUH1to4cxp8P6iC1ApG+yMG2em9VHfHwqvMmWXqwpeaveNCLqS1ltd0dfhI1ctTpsYUvSYoI+MaMLYwnVR9d2gxRg1f4T6evQ36/p6HBXdKksU9dUK6O5qPpQpIBdQTd21B3rKC3skDheByUvCt/WZwnEBWiPD1gfe+ILOiy61obRp71ZH0XWZ82WP5gBSKViBz1RR9KkUh8bZ+iTeqgB2+O0QF8voHn4gqRy0fos6tChWJO+CqNPLnmPLdGsYcblasQ57Rvj7zhizmgxf3v6xmPmhgJ9dAEK9I0n4s5v+crkHOuLGjdFTZXVl1Dzzg2NtTAhVaa/6Ze7ZD4xp2pkuT6vU35M60+vC+hPyRm/6qabcaKv1cQNM3kwQ/VJ6FvtIH24vzb9p1hdPDvMYn1RYy+NB06fFzidinuRvmmNgq6ojjdfOBjOp6jaGt4ZTbq+PlNnPDrXQb9LzxN+6iHUh4aPSZA+45e47ysI9H1EC5zKXxm+9rljL5owz/l00NTZCZdTxaq8Pmf4HrJnLFx9B2YOV6WuxOl7RrXdDNBXxkXB85tVhfXlo3V+6pPE6UNTQQKqDM1Qe0fSCMvmYkgapHlKn+6cYZYPaEY+6jn6OtbtuvrCMF/w3K4Xog9XsLJY33gUMLKxIyTRR095L0D55PXJaft+/XXSP2vxUaYbIBbT6YfrM/CX7EN4jHx09HllhacmwxB9XsFy8z7ce1a5EyQuRI/1SbtUhN5PQZWP07eXvNwNQgMEXvZdG8dwfYckPUMxB873mKaP1zr2t8T6Os4Fkb5B16GzxtcRL8qF+qStenH9U96yIn3OhpcFamaGMCmelQn1BdStrWth+rBh6sDBOYA+b7sf16wqNPHqMa+vS+vzMQloMGJ90ue+oWryuWiaon6Q+EqQPtRBj8ImdIckOwHsT5wuKUifzlhCo3C34+ozPX3WynXQulCfdQeTOyFYn5T7rLwV96Wz2Kf/uNtKw2rfOqTxtlBTYQKY86QdTgjS9+j4dUVJpI2iWkOVFBrzw/TN6L7Pa7zdmR2aFDXfIH2I7MN5ZKnAXpA+1AOR6YGYMcozM+pNnT4rSN8o6IrWF7pUSZzS12GGjlbNoW8sSHxVcJMwfVEI0jcWLzpcUEd2YD4ZO9OIAH21NVvJPJLsmveUPnddJlrzooOC0HWwvtxFOGcH6cOLW8G8r3Wcz+t90jeys2qk71eIvvHAHRIi6UMxXDInEOgjMUqTu0WAvt326aI3E542nyf0zYQlT4ZP6RJ9xoDP7CX6kLRRLUifRE0bT+l7WKnk1YSzX0xQU6n0MlQfXl/xucWJtzW2mSPGicbbR7WPDbVcpA+NQI9uWjh9da5XCdKXSUcJ15PQfKA+3Ar4zs9ZChvc0FEOGDp0Z+hYB43lZ+lDldzuVYT6jly5BunbRHvYofwO04emX3wnPHaktlDfyAwE7kTQp6/q6Ov4ysNw5JylD91mPQ7Wh5J9/Ja+iPE+ec9HXDx9JC7pn0OhDJH+HzUSenmJV+vYzpDR13fXWFVfs9Id3+fow4tr+75CfeJGI9AX+VlHKhumT0KRDV/4AgcBh27a11QlQ41m4OawzJ6C9aGZOF0t0eqhd6Y+8mS8FqwPlZ1grS7Q9xBVXyNcH3lOSdc/nHgnwWiIG7kTkbL3XfTrzPkch5fIAdwdzNzBAz3VIfGSb+sz2SeRAn24cvJt9xb6SFq8oPCYndPjatUhS/QaPmQvHdAMxckCebRpe8XVr0vqH3mmOD2tr20YY/TTex7aWx7cAsX60FHM2DB1olcwvIv6voj65NfQvs/1R3YZ2CFRqlmSo5OXpn7Avw2chomj0KNhuTzEkzAvx/gxYrLdLJePeP+C/cQ9VB+HlwDxLgNhuFSkL+KzDm2VO6FPKo98SRvRadOZQzO3xxlPqI+HBlVhXpgz5rWz9Q3qVOcp1NcxBfaE+iK+H4OeUwaGSx0TcyZtR7ZdmF3v0Au1HjM8fzqen3iPiqjycBthkpkh4S5SrK+jM4OCYIfVQBeua7hs4lXHU4RNpnLqI/C6NDW93h2h/X3duSAS1BvWH2fd9rHpS/X0+DjrdA96H11Ap3NtVg/dTrddpdbTvv19U+sEcrmF7lGecsFbQ2dpTgMDlB+CR0VSZvMqW8uvC1ATpXdRsWhpwb37obtLa/2+qMRr/VbQGdYRcR35e4ietFlk8oWLeHd2QwY+absvtoLnvHHgf877FNN1/2e8X0nfnb7buxTryyzzl7GzH3b4N2nc6SsKy4RAX65QRPuSLyCV2G9xxNmnL3Wn71Y+sBvpib5K4/JtBnIDjxI+fYldeDL+VXwbwbG+92hbhPBuquD9ffcFu8kF60tH2yKkFblFm3Dadxd8MgGCOEIGgv19qd+3zubfIsfVvmxkfXm/PuV+/0+NCt3TaXHE+7i9zVr6fl9MZXY34zdaIte+ne/FhNTpFwT/Xej/eknZWB+8RtzbrGTZ12K0/ck0/MNk9l5D09AE43e0eJ/2hpqqt0NVe73fng/x4L4D3UCVT8ru1QAz30EmLyHsXm1/2r1OmV2yTw1FVa1lmj2/WBYv2RyJN0iqSspe3u726KJKI33fdQ/zsP2ofBS8Fx8/P1bFS0g/bbyL7DaVyuYHyBORy15C5vSFAQAAAAAAAAAAAAAAAAAAAAAAAAAAAAAAAAAAAAAAAAAAAAAAAAAAAAD4Pv8BefP95ZXuVWYAAAAASUVORK5CYII=;" parent="8syRLafnocFv6qWgwPiF-1" vertex="1">
          <mxGeometry x="627" y="1054" width="80" height="40" as="geometry" />
        </mxCell>
        <mxCell id="8syRLafnocFv6qWgwPiF-20" value="Fabric CA" style="text;html=1;align=center;verticalAlign=middle;resizable=0;points=[];autosize=1;strokeColor=none;fillColor=none;" parent="8syRLafnocFv6qWgwPiF-1" vertex="1">
          <mxGeometry x="622.91" y="1020" width="80" height="30" as="geometry" />
        </mxCell>
        <mxCell id="8syRLafnocFv6qWgwPiF-21" value="" style="rounded=0;whiteSpace=wrap;html=1;" parent="8syRLafnocFv6qWgwPiF-1" vertex="1">
          <mxGeometry x="755" y="866" width="120" height="240" as="geometry" />
        </mxCell>
        <mxCell id="8syRLafnocFv6qWgwPiF-22" value="" style="sketch=0;outlineConnect=0;fontColor=#232F3E;gradientColor=none;fillColor=#ED7100;strokeColor=none;dashed=0;verticalLabelPosition=bottom;verticalAlign=top;align=center;html=1;fontSize=12;fontStyle=0;aspect=fixed;pointerEvents=1;shape=mxgraph.aws4.ecs_service;" parent="8syRLafnocFv6qWgwPiF-1" vertex="1">
          <mxGeometry x="791" y="891" width="39.81" height="49" as="geometry" />
        </mxCell>
        <mxCell id="8syRLafnocFv6qWgwPiF-23" value="Peer" style="text;html=1;align=center;verticalAlign=middle;resizable=0;points=[];autosize=1;strokeColor=none;fillColor=none;" parent="8syRLafnocFv6qWgwPiF-1" vertex="1">
          <mxGeometry x="783.81" y="941" width="50" height="30" as="geometry" />
        </mxCell>
        <mxCell id="8syRLafnocFv6qWgwPiF-24" value="" style="image;aspect=fixed;perimeter=ellipsePerimeter;html=1;align=center;shadow=0;dashed=0;fontColor=#4277BB;labelBackgroundColor=default;fontSize=12;spacingTop=3;image=img/lib/ibm/blockchain/certificate_authority.svg;" parent="8syRLafnocFv6qWgwPiF-1" vertex="1">
          <mxGeometry x="788" y="972" width="50" height="50" as="geometry" />
        </mxCell>
        <mxCell id="8syRLafnocFv6qWgwPiF-25" value="" style="shape=image;verticalLabelPosition=bottom;labelBackgroundColor=default;verticalAlign=top;aspect=fixed;imageAspect=0;image=data:image/png,iVBORw0KGgoAAAANSUhEUgAAAT4AAACfCAMAAABX0UX9AAAAwFBMVEX////kJSgAAADkHyLjDhPjFBjpW13+8/P97+/++fn2xsb0sLDpU1XjFxvkHiH74+TmP0Kzs7PugoSJiYmkpKT39/dycnLiAABbW1vi4uKtra3q6upiYmI+Pj7ud3hLS0vQ0NDZ2dnx8fERERGUlJTBwcEmJibn5+cwMDDAwMBHR0d6enrKysqMjIz629zramzlLC8ZGRnxm5zqYWPypKT2vr/vjY4iIiL4zMzoSEppaWl+fn7wlJX3wsPrcHHmNjnXEzUPAAAKN0lEQVR4nO2cCXeiPBRAUXAX6oJaXCouda9Wazsu0+n//1cfSVgSErAKo9/Yd0/PnFYEkpv9EUaSAAAAAAAAAAAAAAAAAAAAAAAAAAAAAAAAAAAAAAAAAAAAAAAAAAAAAOB/Qi6XuYjcrRN+ezKfm8qft/QlvK0qvwvZW2fghmQK6YaSUjWMjH7wP5r9m/079Qf9BQs1pTRK259qsLBPaYmoyEpp8yNb8R9FjiyPCEw/3DovVyf7psQiD6GWlrfOzrV5SsVmL5HQSrfOzpUpxFf3EMrHrTN0VTJf8fR7LvKPar4xV75EIlW5dZauSO4t+oyFRf76QdO/Zdxt1xo9Pm+dqeuRj7vtWoPH9taZuh6bOGctBO3PrTN1PZ7U2PXJxZ+zdCvG3vVZY8fP0bdXYggWMPJURf05+t4L25UWU8TAQm18VbaFW2fquuS2pXh6QFmuLE/WvNrYMIxx/xoZuxYPxTj8yYn3k3cyq+3JIDkYzebDv2Sw2Ww+i29tHWmWCVOTu7vR9LC+sOidvNMy//6ex0vUTCmG9qss2YsKsjZKUrRPp/ACrAt3a6IDxyTLTDeZtCU5DouQ++RXX6qiqF9PKK/56NVPRbGW5eo1pSipr/Q734qNti95Az2CpiCs6z4K9VU5PYMDVYBlXl8yOQy6S67S0HCNk1MoRpJbRR2A5S/rMssEKQZZa6z8S9/eAKfo11wvN19mJHn1WIwxnKHPwitAob4gf7mVt1rTihlJ2kZdvWkr66p7rxDUUoa5o8k22NYQ//0SizKaUH1to4cxp8P6iC1ApG+yMG2em9VHfHwqvMmWXqwpeaveNCLqS1ltd0dfhI1ctTpsYUvSYoI+MaMLYwnVR9d2gxRg1f4T6evQ36/p6HBXdKksU9dUK6O5qPpQpIBdQTd21B3rKC3skDheByUvCt/WZwnEBWiPD1gfe+ILOiy61obRp71ZH0XWZ82WP5gBSKViBz1RR9KkUh8bZ+iTeqgB2+O0QF8voHn4gqRy0fos6tChWJO+CqNPLnmPLdGsYcblasQ57Rvj7zhizmgxf3v6xmPmhgJ9dAEK9I0n4s5v+crkHOuLGjdFTZXVl1Dzzg2NtTAhVaa/6Ze7ZD4xp2pkuT6vU35M60+vC+hPyRm/6qabcaKv1cQNM3kwQ/VJ6FvtIH24vzb9p1hdPDvMYn1RYy+NB06fFzidinuRvmmNgq6ojjdfOBjOp6jaGt4ZTbq+PlNnPDrXQb9LzxN+6iHUh4aPSZA+45e47ysI9H1EC5zKXxm+9rljL5owz/l00NTZCZdTxaq8Pmf4HrJnLFx9B2YOV6WuxOl7RrXdDNBXxkXB85tVhfXlo3V+6pPE6UNTQQKqDM1Qe0fSCMvmYkgapHlKn+6cYZYPaEY+6jn6OtbtuvrCMF/w3K4Xog9XsLJY33gUMLKxIyTRR095L0D55PXJaft+/XXSP2vxUaYbIBbT6YfrM/CX7EN4jHx09HllhacmwxB9XsFy8z7ce1a5EyQuRI/1SbtUhN5PQZWP07eXvNwNQgMEXvZdG8dwfYckPUMxB873mKaP1zr2t8T6Os4Fkb5B16GzxtcRL8qF+qStenH9U96yIn3OhpcFamaGMCmelQn1BdStrWth+rBh6sDBOYA+b7sf16wqNPHqMa+vS+vzMQloMGJ90ue+oWryuWiaon6Q+EqQPtRBj8ImdIckOwHsT5wuKUifzlhCo3C34+ozPX3WynXQulCfdQeTOyFYn5T7rLwV96Wz2Kf/uNtKw2rfOqTxtlBTYQKY86QdTgjS9+j4dUVJpI2iWkOVFBrzw/TN6L7Pa7zdmR2aFDXfIH2I7MN5ZKnAXpA+1AOR6YGYMcozM+pNnT4rSN8o6IrWF7pUSZzS12GGjlbNoW8sSHxVcJMwfVEI0jcWLzpcUEd2YD4ZO9OIAH21NVvJPJLsmveUPnddJlrzooOC0HWwvtxFOGcH6cOLW8G8r3Wcz+t90jeys2qk71eIvvHAHRIi6UMxXDInEOgjMUqTu0WAvt326aI3E542nyf0zYQlT4ZP6RJ9xoDP7CX6kLRRLUifRE0bT+l7WKnk1YSzX0xQU6n0MlQfXl/xucWJtzW2mSPGicbbR7WPDbVcpA+NQI9uWjh9da5XCdKXSUcJ15PQfKA+3Ar4zs9ZChvc0FEOGDp0Z+hYB43lZ+lDldzuVYT6jly5BunbRHvYofwO04emX3wnPHaktlDfyAwE7kTQp6/q6Ov4ysNw5JylD91mPQ7Wh5J9/Ja+iPE+ec9HXDx9JC7pn0OhDJH+HzUSenmJV+vYzpDR13fXWFVfs9Id3+fow4tr+75CfeJGI9AX+VlHKhumT0KRDV/4AgcBh27a11QlQ41m4OawzJ6C9aGZOF0t0eqhd6Y+8mS8FqwPlZ1grS7Q9xBVXyNcH3lOSdc/nHgnwWiIG7kTkbL3XfTrzPkch5fIAdwdzNzBAz3VIfGSb+sz2SeRAn24cvJt9xb6SFq8oPCYndPjatUhS/QaPmQvHdAMxckCebRpe8XVr0vqH3mmOD2tr20YY/TTex7aWx7cAsX60FHM2DB1olcwvIv6voj65NfQvs/1R3YZ2CFRqlmSo5OXpn7Avw2chomj0KNhuTzEkzAvx/gxYrLdLJePeP+C/cQ9VB+HlwDxLgNhuFSkL+KzDm2VO6FPKo98SRvRadOZQzO3xxlPqI+HBlVhXpgz5rWz9Q3qVOcp1NcxBfaE+iK+H4OeUwaGSx0TcyZtR7ZdmF3v0Au1HjM8fzqen3iPiqjycBthkpkh4S5SrK+jM4OCYIfVQBeua7hs4lXHU4RNpnLqI/C6NDW93h2h/X3duSAS1BvWH2fd9rHpS/X0+DjrdA96H11Ap3NtVg/dTrddpdbTvv19U+sEcrmF7lGecsFbQ2dpTgMDlB+CR0VSZvMqW8uvC1ATpXdRsWhpwb37obtLa/2+qMRr/VbQGdYRcR35e4ietFlk8oWLeHd2QwY+absvtoLnvHHgf877FNN1/2e8X0nfnb7buxTryyzzl7GzH3b4N2nc6SsKy4RAX65QRPuSLyCV2G9xxNmnL3Wn71Y+sBvpib5K4/JtBnIDjxI+fYldeDL+VXwbwbG+92hbhPBuquD9ffcFu8kF60tH2yKkFblFm3Dadxd8MgGCOEIGgv19qd+3zubfIsfVvmxkfXm/PuV+/0+NCt3TaXHE+7i9zVr6fl9MZXY34zdaIte+ne/FhNTpFwT/Xej/eknZWB+8RtzbrGTZ12K0/ck0/MNk9l5D09AE43e0eJ/2hpqqt0NVe73fng/x4L4D3UCVT8ru1QAz30EmLyHsXm1/2r1OmV2yTw1FVa1lmj2/WBYv2RyJN0iqSspe3u726KJKI33fdQ/zsP2ofBS8Fx8/P1bFS0g/bbyL7DaVyuYHyBORy15C5vSFAQAAAAAAAAAAAAAAAAAAAAAAAAAAAAAAAAAAAAAAAAAAAAAAAAAAAAD4Pv8BefP95ZXuVWYAAAAASUVORK5CYII=;" parent="8syRLafnocFv6qWgwPiF-1" vertex="1">
          <mxGeometry x="775" y="1056" width="80" height="40" as="geometry" />
        </mxCell>
        <mxCell id="8syRLafnocFv6qWgwPiF-26" value="Fabric CA" style="text;html=1;align=center;verticalAlign=middle;resizable=0;points=[];autosize=1;strokeColor=none;fillColor=none;" parent="8syRLafnocFv6qWgwPiF-1" vertex="1">
          <mxGeometry x="770.91" y="1022" width="80" height="30" as="geometry" />
        </mxCell>
        <mxCell id="8syRLafnocFv6qWgwPiF-27" value="Fabric SDK" style="text;html=1;align=center;verticalAlign=middle;resizable=0;points=[];autosize=1;strokeColor=none;fillColor=none;" parent="8syRLafnocFv6qWgwPiF-1" vertex="1">
          <mxGeometry x="154" y="955" width="80" height="30" as="geometry" />
        </mxCell>
        <mxCell id="8syRLafnocFv6qWgwPiF-28" value="Org1" style="text;html=1;align=center;verticalAlign=middle;resizable=0;points=[];autosize=1;strokeColor=none;fillColor=none;" parent="8syRLafnocFv6qWgwPiF-1" vertex="1">
          <mxGeometry x="472.90999999999997" y="841" width="50" height="30" as="geometry" />
        </mxCell>
        <mxCell id="8syRLafnocFv6qWgwPiF-29" value="Org2" style="text;html=1;align=center;verticalAlign=middle;resizable=0;points=[];autosize=1;strokeColor=none;fillColor=none;" parent="8syRLafnocFv6qWgwPiF-1" vertex="1">
          <mxGeometry x="620.91" y="839" width="50" height="30" as="geometry" />
        </mxCell>
        <mxCell id="8syRLafnocFv6qWgwPiF-30" value="Org. N&amp;nbsp;" style="text;html=1;align=center;verticalAlign=middle;resizable=0;points=[];autosize=1;strokeColor=none;fillColor=none;" parent="8syRLafnocFv6qWgwPiF-1" vertex="1">
          <mxGeometry x="758.91" y="843" width="60" height="30" as="geometry" />
        </mxCell>
        <mxCell id="8syRLafnocFv6qWgwPiF-31" value="" style="shape=image;verticalLabelPosition=bottom;labelBackgroundColor=default;verticalAlign=top;aspect=fixed;imageAspect=0;image=data:image/png,iVBORw0KGgoAAAANSUhEUgAAAQ4AAACUCAMAAABV5TcGAAAAt1BMVEX/////U0OT3tsAAAD/6ej/Tz7/TTz8/Pz/SDb/RjP/QSwiJij/7ez/19T/Szr/UUH/hXv/em//j4f/p6H/+Pf/bmH/YVP/0s//OSH09PT/ioH/ycUZHiD/sav/oJmLi4v/MBKTlZbm5uZvcHHZ2dk/QkMJEBS4ubn/392D2tafoKJbXF3/WUr/ZlmoqakTGBs5OTnQ8O7/vrnA6+nk9vXGx8dkZmek4+BKTE0sLzH/IAB9fn7/l49vwdLPAAAR/0lEQVR4nO1ceX+ivBaGIqsIoqio4Fa3qhVra6uj3/9z3XMSlgSwWt/7u/POXJ5/RiCE5MnZk44glChRokSJEiVKlChRokSJEiVKlChRokSJEiVKlChRokSJEiVKlChRosTfhI/3t989hH8R1Penp6+SkBhvT4ivj989jn8J3gkdT++/exz/DlDheHoppYPg/YXyAT/N+q+6+bvH83vx8ZUKR9+z9VHdVB/tSwVwP1XmTvxUjcDeTm+pRY/5L+QbFwyk2+3G9/F3DOay4DV0K4xw9HRRFIGQpfsQG5PtdnygH1FX4+G2K0y3eIs+na7G42FX6MI/iNVi2iUvrbbRnfFqKgiH6Pf2MOlGHY1XyRem4wTnCTQekte2iwltHKF7OM+qkn98XkxwNGu/Wq2GgLkkqUL3KBH4s/OBfYmCFY6OIRLoo17tEZ2ZwlfG9BPdnSQ9TwT1GW5VCUNd/PkM//pSjDVMX1gkl1K4FYRxcjUfTpCOkySdki9s08YSvLxKLvzzNJHLwxq68qt+KEk7XJ215MNl1ffhjiqo6zn8Dv0QHn9m+WCFw71EdAAhRq//c0KmJz+h4xjOgQ5hOvOr8zGZyckPZ/Cwe4KRzgF+VQpxhXF0c4Iq0LEKYSXJhY98CurO92cpHfPo6XxO6aDvQo+StKVfVhcneHcO88UvYBefc8IFIqLjNJvNdvAhXB4OH4xbcQNFlxNC9F6/8s/pELZh1T8hL59zf45q052F/vE8HJ6BlhCGc5Cq4fGT4PlA6Jg/D4fD5yo8XhTRcXz+fAZ8TggdpzX8PPpwX1oR+TjAPKXZebwan2cSNhKe59UdatVqtRoTOsL14nBYDIGk6iRDBxWOL9KTu++JCSG2btX3PyOkiA4cjH8GEyBVpaFK6Zifu7iKsKYzIh3SdkLRJXRIhLWxRCaYp2PbhYZoCpEOf4fvHraw5L6P701AFqRPYq7UxXBKR+Af02mr63BOWCI25cDPAAL0FybmMPcXUbcTQuR68BOjSuiITGlCxwTGuTtMd+GcjonQQX7BA9AepIMZVEwHGKIqcpunY8E0Bjro5RRYDz/h2wv83DSenVBExzyi4xnWg+mMPv0AQr5Sn2N2LoqREKJ5tZ/QsfPnzweCxcyPPgq2suqvz5LvL9SEDhShKQjrTiV0LHC1Yc1VSgeZzbZIOhYoHSptrbJ0CBMQj9lUUFGotvywgI7daoHYTgkd4ecUOljsQFmmQhbqxxsXkJq1i5EQ4i1/Rkf1dDzOEKdqJB0wHOADVHsYqdEsDNfbw2J1BOOwJsoS245zpCxn0PIz2uCc7VhQ25E0TukQ1nP/tBAmZ2CXSuUQcQbXAoJT3QFOu3BF6KjuPqEPGGx45CdQrArucqBTQvQGtnh/vy8wQzpiG15N6ZjM8eoYLQRYFTK6Klr2A+NZQglFeotdYJwQuYU8HVHjdYaOseSftmg6iOVGZQPn4qOAPSeeRRpTOvyQejaJFw7ntXmFkEqTEGKgrryBdbmLEKRjHscQKR3oPHw/lmBCB3GWkoRTOcBl9FJMRyghJxJ9P0cH0zhPx5Sjg7obNObRqMCYq2BrQxxfdTbk/UpnJCubAUdIUglSzaZmeCSDob74joII2o7zlDqJWZjS0U2MeUxHFVz/55jcOoDMfhLBHq66hA7QHTQr1NTk6PDXtPE2Ix2fqbJ0KR3+KabDny0S1wV0+MfFAkbhZ5a4LYu2rFssIe8vL8nEzWYLLccb8cWsub0G4CCxEGuOjjlzcYxMaQSgQ2LsO9ABKgTyND8LhXQUexZBlagpHUppd9N1GNFxTLUC6MC1GYONGvPDp0GobYwuMSEkZH/hc/0oUCMkfZ/dcXTMv6HjmZHSQjqEHaj2tpAOn/EbDB2w2uEned/3593v6QghO5isw0iMEiQhKBBCQvI4ZP9iGr29pMWyxq9W7ZtA5D461gV0pAnnlsYdEHVE+oV0REmoSuhYqUnjBYZheHmYwYMTCcPAUsx3XZJNH45hoixdqi1qTIcwzjkW27ITQn7hNON8jrUTT2mtrCbK2sjpXxWRq8ryeY0bSkeIgTZgDS9H0qHirMaUjmp1TQDBG9JxjBurGNJUj+sjpItgHqs08V2c0J4PMQo/hVlTCiFJTEd3zYulIDRbohYTMsJ4/C3N52JEtTIiHD0FGmqes68UEzKZ+dL5x3RU06zsM6EDxSOcHSI65pieS2tCB9sY6YDUNIRcdb6LlWh1Ij4U09wqdbSSHwPmD0n2nKTSoFZhlVMXs+nYlBCtJRQLxxcjHG2FMKcZzr4wOpvCMsV0HCUpdSZr9oJ9gnQwOTvEEpizk5zlDD8wmD+lTydsNQAbx/l+eFqf00B/8elLSCBwdlpDGHb2dzHADqtn//Q8JaPazWZDfgaVoE6SFC/1IbzlYITjothx7G44RcnMZDw8L6I0ezUeL2Lq1RX4xYSOMXWSCYfDFHD/AJEksXsTSEIxBUsLPlhOYhtDgH8mv7CUxI1jO/w8Htef5/ECv3rYLhKA7zksFrTuM4W89pCVc3PfsHUDhUPNC4fKCIew3ySxu2h5/QKFKSzUkfvXLnLvFHfANuZLhVfaTaaAfLHrW0T+1Ow3WnH0iWC/FxlS0tLtDDZG7I28/s++9Qfg6z0mBFWFE45YFd6+Xhj1cWsD2SOEWK2/r+LObzV9MAHGwBnQyg+ku08vT2lY5i6bIhLi7R8ut/9rwSciTPRZ8Sz59RKVwtQPLkh1l4HoGa2fJP5/CLgAgxWOni7airJpFNcGVTNwOv+TAf5vURB9vqD6mB5xp7KlXyFE+Ps0BVAgHMRM9LSkWjpyeJN5byXoT0Q++iTCITR0JQkwtF8OE5KDL74n0//joTLCAY6lzWR32qiepLEMZ38n4olS6YhVwWWzO8ja6h3S7oMJ2f8IuAR3N1f7g3jz8e2LDzACZ6Ole3JGgDfZkL2oN7NSBH44KtwxcyNUuTfMbA3B5Z9mXnfxu7mw0F12+sFgMLgE/dqVFDyLpe5ZjXjz8eP9jX3L3fc28Z6crSMdb2zIXgBz4NTzcHjv1ME2OT9tcm9eYApLZizunn3cawz2HbbT5QW+EvAdVvqDlu4ZBJ5VD+45lKAODJip0ruy+QjZXZSkWCTsioXjGtUVx9DyGPERG7bxLtnBmdybum7oTpAOym163GPDs9n9wdqroXkNtjtYSt1IzR+k4K3m7Q3WCnkDd2ODK4T0SdZmy00hsRxXhQPosMQ8+J2rJcY0cjsrHmY69ngGWj3ZAXSbRqZTW9fSmKjWUkSdpWPZsMjWqgzE6hqp0li6c3NDMf4KEOJkCHmLFMftNGXPeMUpRUfqvgo6YuhQjAx+cXSQEzWikS2XEDosLwbKpK0nmQChwzaSp2jlbcOJ+8jS0W9hJcLWPdG5DC69V08nl6+dGxak7qWLITusOH3gUdOIkFqzhYoZ1cquCwehQ2k1Ax5N1si5np0qX4YO2al1KPrNDTmHdDFTOuxNED8NegoGisalmI5+G59qeq+/BKNtmsvORSft2zf0pdLw0v16y24NkvacQ3WJc7gpHIQOrVdxM2CboLGSYemNfZ4OpZeytnSAD9nupHTI7YRB1+y0kC7PLKKj82oR0eqky+B2HA/Y6N8yp+6ykW5P24rcjtaDhuwvrNGMheOb3ThKx7eFEBTzVksW9cwJxQwdoP5tOdUpSger+8sWzNlo0guODmrAjIyxrlx+Ofck4SpHiGyJ5KNsyB4h9rLf9HWbjr0O0+qjJciclMjRoQZGqi15OoSmDdq1ob85OgbIeKJH6djuPtxlXoxUZUZY9Pt4yZmJoip77pM36WgrWLPvA/86v3w5OoTlCPS/fpUOpMDW098xHZ1XJdoXeBzuwNJkxsbFwsHoSsEWTA436egrsKZ7oQIps+1xdq2ADuDsGzpMoEDU6WOWjgHxQTfmexPuRSRZGwnGHxSO23Q4CswKpGJv4JdYt1dAh4cy/w0dYCJ0KmEMHTW87WXs9A+gfnxE/rT5CrHKtejzDstxm47aRhatSzRoWWG1JW87CGX7eGx5ZXktVJY9WA5ZfLwEAUrwHhMSOG1csoK8NdrL/l44btLRgPjWQh1xB3pmayLvWWC61mvkDAroCDbwQmQiUjrI0Vhe7n4E3E14STcYamyAgZ1GK6i+fd0Wjlt0LGHUlkN+9lFOXpln2bij1jNERQ6SekOWDuJOY6VI6ViS24+XteMAg731lAYYnUG8G/vx/nVLOMgY9cZVOtA3ejSwMusgHmxul4lKB21DtOxB3FUmDBPMTl2xRWsTsZXSgdvI8ubhLSD1PR9gMMJRcTzDCegw1I+bdVKkw3L2fQ6JWTPhqSxGFwFQoznpq0iHLb5SbHRDtpVWkEwrCtLjHoNGG0yEosd5YEpHR0F39NgfGAiFSSobfQYwRE13mndKH9Jhb9o8rPjpHrTdi6sSJKr00mUkKRyE7xRITYP5KKEj7nkj61iG0bSE6JQOjGiMwaN0qAUBBiMcZl0jyYzVGtx12pYodDInCmUUT6mBwUYy0gb6yTR2zNIBoXyDl470Mba0vFZqiVk6MHR/lI7rAQYRjr1oR9md8nq5Q0IK6x1e9BCtJ5d2gpsRk4HTescmgg4ZvqLZDp/gKwh6GkVvBcx4/lt0FEWfTIARJPv1kN1tbm/ZEzosb8ThVzSjQcZ4omJZqWFBU1pPaq21ga3D4xbjaKllaW0gGLUuFa6YyiuL/qiyqDeiT7eppyc6vNun9YmjrdcyleNoyBhHOEwXTZigleQW2bjDrWAtRueC9A5WC8wRxhu8qDKmVP4HpvQ9LxzqF/W88aiacbpry/dJh1bsaEmCygVeLmpLInL5IJ344ugNNu5oYvDOCwDvaJVHHe1LaibMpGaFBxhYxxuAHbdzIyjEN2EYehLbZn1wpwWaaMW+Nk+HUINbFt0TZelwFYjONW5tUjoqdbTXD4ZhzFaT5o3q8WYERKBcs2CjKJZ4x2mfb+jYYxkyrXYisKKrxKFmAR0k7zWIrnFRaR+1iNutYIL0phGloY+AhN4kwICV0r3Gtc2I4FW+3CGB1+mo1DWxCLY8oA0K6KCJDeGAo8PEuqHH5iVMCtcXsSr0cBz29oXCob4SD6kbvU7xrN27/nLyOh0dsEC2ld2BweJ5tMxFdDQTc8PnLKhFsshEQgwdFazU/4MEnyCIAwz8g0B+OnH+fw+u0uE2MKrMbtH1IEyF0Ju0uCodJBDn6SAPDMZ/sOWfPRYNrYKS+Q+y3F5aLdU17g8CIW59v5uQq3QsNZvU2VQOZJtH65FpFdDBZKeZjHbZtjg3xdJBImndyatLbX+3CnWiXatIQurpoWLwxS9379hfo8MdFAeLeMpIbpNp5elQA5ABZZM3pSQesll/ypWO+3g22siZuqWjDW5vS8YD6zd05g8C9SSNJc7n3hMu1+gwFRnsW8FxMgdXknjwPB0BTsujHGbrHUt8Ma2Wc3SoTdzH0Xt8ltVxNFlzio4GF8PsXzSGEHgV77KVoNu4RkeArrEoPKuNsFiNAyd0pBkNjGaDAX9UDsuVf7A+YHv5BJ80voBq2lqLycMrTbJNNcrtlH8Ds8MRgtzfsdXE4hodIgROVlEw4GIGQs5KkHpH+9Kg6DltPFti2ddqpSRktaJtluympHnBaVhyqxd0lstlrX9p2WQr6q6NJ2Z0tYQQeYPO6q6CcYordGDcZBUPBeVGQ19LE3yLQrMszB11ZX+1OLgnm3RR0JLdsnaDkUx6E9uY9rUV0rlX/3G06i6jv6El0fPHjdM+WVyhA42APih+A+MRvV9woEHUR04t1tGC0nFDQxGmxjF3oEGt6WRr3JaTmoBuNB9JZVTz4mGQ8IBwCJWWZ4xy/z1M7ZdhGFdifLcxMowRMGh63CEIb+T1aqnBcpvQzOY3Ftrwhkerzx34PcoELYHhpQzLhvdDRWG7Goy8tpD56417YOJRrJx73w+K7kZYNvBpBSY8SNEMMrGg28e7vJ8k3dIqXYV8NzuLvgOkUm7FO47+fAfikeL/I+kf9fRbYXb2+32/9vguFIP4zyb/4lOkPwKVjpf/g0PG9wE9y998xPjH+Hj/fziBXqJEiRIlSpQoUaJEiRIlSpQoUaJEiRIlSpQoUaJEiRIlSpQoUaJEiRJ/Ef4D1+E5Zt1EKq8AAAAASUVORK5CYII=;" parent="8syRLafnocFv6qWgwPiF-1" vertex="1">
          <mxGeometry x="875" y="790" width="72.98" height="40" as="geometry" />
        </mxCell>
        <mxCell id="8syRLafnocFv6qWgwPiF-33" value="" style="outlineConnect=0;dashed=0;verticalLabelPosition=bottom;verticalAlign=top;align=center;html=1;shape=mxgraph.aws3.elastic_beanstalk;fillColor=#F58534;gradientColor=none;" parent="8syRLafnocFv6qWgwPiF-1" vertex="1">
          <mxGeometry x="156.5" y="866" width="67.5" height="93" as="geometry" />
        </mxCell>
        <mxCell id="8syRLafnocFv6qWgwPiF-34" value="" style="endArrow=classic;startArrow=classic;html=1;rounded=0;" parent="8syRLafnocFv6qWgwPiF-1" edge="1">
          <mxGeometry width="50" height="50" relative="1" as="geometry">
            <mxPoint x="229" y="936" as="sourcePoint" />
            <mxPoint x="269" y="936" as="targetPoint" />
          </mxGeometry>
        </mxCell>
        <mxCell id="8syRLafnocFv6qWgwPiF-38" value="" style="shape=image;verticalLabelPosition=bottom;labelBackgroundColor=default;verticalAlign=top;aspect=fixed;imageAspect=0;image=data:image/png,iVBORw0KGgoAAAANSUhEUgAAALgAAACUCAMAAAAXgxO4AAAAxlBMVEX1hTb////1hTedUCX1eAv959r1gCj/+/n1fSH5t5L838/2iD31gzD1gSz0ehX70bz7y7L6vZv6yKz96+D4sIb7iDf2k1L+9vH0dACXTCT4qnz3om7+8er6waLrfzT2jki5iXTGaS3i0MiYRAvXczClVSeWPgD72MX2mV/fv7DQsqXheTKaSRbfsZrdagnIXAC9VQDn3Ni3YSzw6OWxb02vfWjYbiK8lIPJYxi2VAuNPg3bxLqMIwCtcVTGoJGhWDKkYECSMwDhPmxdAAALk0lEQVR4nNWdbWO6NhDAISigBPARFFC01sK/ZQ+167qt69P3/1ILqJggBAJJt93LGuTncXe5uyRUkhlEG+hQEiTQmrksLBIDdhRaorCRAN2wNRHgwcw0gUBwCZjmbMofPHJUYWZyFqiGNm/wsTjrJtD1GVfwvi/Sugmx4j4/cDvUhVo3LkBvZi5NwEdQrFcWyE044gM+ML/FvC8CzQEHcNf7NvO+iOUFXcED3/pGMzkLsOK6iF4DLo4bUAR9rMc1OqeDT2NVDDdQe4tKSXUF1BqdU8GDWBWCLUnqrD+tlCh7yipd5zTwqSMqfAN9QMmn+j2QjXFo5BRwVxh3I3A0KKYkutXgIuNgI3AUW7zqUdXgA1H23Rgc2Xn1TFQJPtLFcTcGl/TK2b8KPBKaxjYGh3rEBj41TIHczcElU6oI5+XgmqiJhxkcTUTlI8vBB4Lz7+bg6dDm4COhdsIGjuy81EHLwPvOfwrcdMqKuRJwzRNeqDGBA71sHioBt8VXDkzgqK4oqUJLwC1RERwiMU1dtyxLX7GAQ6sJOHdDQbSqqpqSEYZO7A8mUR/lTkMWcGQs9eBD3voGYex7s8FqFPWDnHbCZCroxw/rwF2fd0Qxh9OgSOmGMzZw0y9muEVwm3tOWNZUGy8YNS6pRf8sgIso1npXedJ0wRZVpJJCrgA+6nHnlmBYLMEcyAwOFgWVk+CaISAUAqtgLBOVMY5nP98gryDBJ2WXdBXLIWPf1IEtwIFFpiwkuMRf4WrRDzVUE7YAlyCoBp/w9kxgmn7RwCOdeco/ij6pAtdivjEcQCu+SkndNG61AjeJkgIHjwy+3CocXNddq6zBpo+rueVphacZeFzFwLUZX0vpxVfzNJoojkU4dGbV4lVwEM0KDLzv8HRN0yJMUvOORuOfoFCaWC0VXwnDfim4zbGjbELCKbXI6mV3HXXRDRERL+Ba1RNiv4Gkx8Qi8dCzYJaaBt3cX8VSrQv49NK6ojXdQe1jAaq1wtXtDsLsq1EdM+7YHlOnJeCT3FJUnSo1LRfYI1cqh44KsysgGMJuXgQwv7mAh+cvNWZjqsxojxuqBhG6A+9SCcLO7UgYXoNri7MijZql3T7FiVVArJe5o+6wuIBF7jo5+CjHMUrCL/Hsq8AB1H0i+Rx6Pcg1awOXej8H9/OY0hYcqHrBKQ3uHUg1r5rP4Fpu4m3BkVMS+VQkCViRhuHZVs7gw0ue0gYcFLeaTH0BtRQOdwZfmdefMYCr0gBXdzAxBLXxzFUBHJs22cGh5RMFceRbfJ3yIrmRn8DxdgozuGpO8K6HOzPErXvlDZYTOJ4ZMoKbOtmssSWRm7fgued8Ao+wz1jAATQdwkr6/qIRNqQJ9cqIAMcXBxnAgR6OCadcNXRK059UCzUVOy8gnsDH2P0agwPY84n0wI7VZk5ZtbBzlKrS7XjlCgfXZm3AdXVEOKUHm2bbrYrl05WndukRPPCxONAQ3ITEZlh3pFY+4asptD04KiYCHBwvNxuBm2pMOmVcnU+FXqiTH3YAhw4OPpXYwJFTrnB1B2NYHbphrA3HEjEldQE/LTUfwfv4elU9uLTwiIaJTd13Cx0E2R+o2D06gEtWHwMf4kNrwRcqYSVBrFKdMgNPn4qV/7wO4KA3xMAjiwWcWHZ0J5YpUWPgCRzJODz1TLqAWxEGbrNoHL+lZjsLi15b61aeQ6MJytfVrhq3MfARi8aJH2GP7FrBDSuwY8sEnTQ+4gHeQtzIWbAvpWDgEwx89Y3gctpq6XUAX/174CgaTP6f4P3V/xJ8OnCYF2grwL/TOQPPUDs5JxeNT0eTUa1gfQutHy/argGdwfFw+BMLuIanV3a8WFh06eUTkBt5lnrc8NsB/Ke24EMiw3InoU7vp5+nfM32TF067fflFMfZwBchsbwTePT6+ARu+1Je2PHTuM4CbsHCdvoopG1ozcBtA08hu4DrJDj2UZMKqNCY1cYhpZBwAjskH0qXfJwAv/+ZERwV+E5ErE/51Um5keZVBbV1AP+Bgf9gBU+74eYM7024o+pzZVc/qQv4zx3Bs87yCv97MGvWxOIJfvPLnBlcSlejyPWiftiwbdgBfP7LDQb++Cv2EUsLDlpEX1xbhc0Wq0yfUoDQV0N/feQALqVHpIhErz8rOmKpAJMy1dLbjyT4Yd0WXFJVD7cXzW52JLvt2vX6gIM//dYeHAV1Y4wrPRj0BG7jXv/2hIG7z7+3Bk/FIq+ZOpVbNzrL788uBq69/NEJHJgLcjPQyhG1mvLHC96tle//bNFmJkR3iMxrOtCFnBcGf97LOPjrriu4ZEJi14Q2NERsoAe7VwL8ZvnQFTxtPRNOqo3pPcVW8rC8IcAf37b53NkaHDlpSGRefZ+3k863b48EuPucXMBrtn1QwNG8QgR1eRLzPTI3T57JdU755a88kgNvQBWPqkXdIVr+04GaOynsvgC6/utFJsHvk9tc5emRBorQnz6AJumk/bOTQn3Y1XDmW+W+AP74se/4pReBC/IdL6vjWnMvklddDWf/8VgA1z6Vh3n9hc0kfX8EYS/pQmJ65KDjgYD5w/6zuF9F3iRbbuDISXUPj01a5CycdGq1L1beIsmab3cbuQj++oVniN1FD8eE0lfHfla+RZWyR7ByQ9T68PV6BS7/rdzyU3lW2TklE4K7OHK32RQ8v1X+lq/B35ID5+TCXFztej/1V+nbsIOK0g0ckrcS8B9fykPp+A6iG6PiwaPscG67mvNBuVgKBv6ULLe8wZG9+EV7GQLYEny7TJ5KwLXNbskbHIlqFE9eDfSW4Mvd5nIVtn/89W7JMSLmAnVAHr1qd5wGxcLl3c1lEAb+9JYoQvau6YUTeSNVagEOlOTtYinE4Y73nRiVX721I1bZwZHCd+/YIBz85kPZc52EMjnvGsCkxSE9ab1XPjBLIQ8wPYsILCWnX+UB+6obCinP+CAC/GancI/l0AhcVytgMh9ERTFc2eEKL5x1+0yWB87gyDeh4w1WdjTsTwP3xGuzavywTD6JQST465ey5JqxZAJNNT0abhqO7w3Gq0k0DAKmw9YoS1nis+Y1uPaZKApv7lSyXDU9LY6SP9MI45jpeLskKUrySV5ROEF7g1R+EBASCYEQWkymMj8ghd+Qgwrg7gb5J39jKQrbzInSWWW3KWRrxVPiN4oiIph3AkchXFEKCr8C1zaJwj+YdwPfIgvfFMdfvQnhEf265e1/CRxFFEV5LA66fvfE/R0iF2wsLOBrxH13fzWo5G0fH8hY9oKOOLCDA2Tgycf1oBLwdOIXbOYMLz9CkbAw2VeCy+/IWBSh5M3Bt6mhvJcMKgN/ekM6FxrNm4KnEVzZ4fUDFTxNzJG18GvJtQZ/SAPKR4mhVL0nK40sirIWRt4MfJ4GlLKIUg0ub9KYuBdG3uhwx3y9Tw18Uz6oAvwJxUSRc7/qDfuVcjquns30yWeZgVeDowk0yXQuihzWrhxk+k6up8wa8CzbUpaK8HyrStbL1MCvcqt6cPk+ycgFxhaKzB+UlDspd0w6uPz+lZLv/w3y+UNqJ8pX2cxTDy4/p+TfUVdccd9mN/56psDRwLW0HBKet5TINjPv3VUO3hRcfjqTf6uLrs/c1H/PQAVH5NkUujxwb/lXyvzhkHHfbSoCeCNwVDxndr7ci+iGlnJvM7dUvuj6rgWXtZdM50jp0jegz6WjupW7l7r/hVEHjqJiciRXRBeiKIW5VY7clPjdHFy+V47oylZcupjK/OSV6HY/6qkagKPZf3dU+l6o0m+P1o1uVjnPM4LLj28nQ1cOopQ+Xx9OZnL3WZVXsYMjFz3qXFkuea/iHgVsjzkV0netW7KAI0P/yNH5T0frC/ZHvVuygcs3z0dzyYI6z8QL+eTJuJGZPDcxbzZw2c2jCyqNEDof9vnDdn/+1iS5b/5PmJqDX3w0kwOPpBHN78pZ28rdWyOvPMk/JIMAe3wIepQAAAAASUVORK5CYII=;" parent="8syRLafnocFv6qWgwPiF-1" vertex="1">
          <mxGeometry x="291" y="919" width="49.73" height="40" as="geometry" />
        </mxCell>
        <mxCell id="8syRLafnocFv6qWgwPiF-42" value="" style="endArrow=classic;startArrow=classic;html=1;rounded=0;" parent="8syRLafnocFv6qWgwPiF-1" edge="1">
          <mxGeometry width="50" height="50" relative="1" as="geometry">
            <mxPoint x="88" y="931.78" as="sourcePoint" />
            <mxPoint x="146" y="932" as="targetPoint" />
          </mxGeometry>
        </mxCell>
        <mxCell id="8syRLafnocFv6qWgwPiF-51" value="" style="endArrow=none;dashed=1;html=1;rounded=0;exitX=1.04;exitY=0.452;exitDx=0;exitDy=0;exitPerimeter=0;" parent="8syRLafnocFv6qWgwPiF-1" edge="1">
          <mxGeometry width="50" height="50" relative="1" as="geometry">
            <mxPoint x="569.8000000000002" y="974.4799999999996" as="sourcePoint" />
            <mxPoint x="607" y="974" as="targetPoint" />
          </mxGeometry>
        </mxCell>
        <mxCell id="8syRLafnocFv6qWgwPiF-52" value="" style="endArrow=none;dashed=1;html=1;rounded=0;exitX=1.04;exitY=0.452;exitDx=0;exitDy=0;exitPerimeter=0;" parent="8syRLafnocFv6qWgwPiF-1" edge="1">
          <mxGeometry width="50" height="50" relative="1" as="geometry">
            <mxPoint x="727.8000000000002" y="976.4799999999996" as="sourcePoint" />
            <mxPoint x="755" y="976" as="targetPoint" />
          </mxGeometry>
        </mxCell>
        <mxCell id="8syRLafnocFv6qWgwPiF-57" value="" style="endArrow=classic;startArrow=classic;html=1;rounded=0;" parent="8syRLafnocFv6qWgwPiF-1" edge="1">
          <mxGeometry width="50" height="50" relative="1" as="geometry">
            <mxPoint x="-146" y="931.78" as="sourcePoint" />
            <mxPoint x="-88" y="932" as="targetPoint" />
          </mxGeometry>
        </mxCell>
        <mxCell id="ao6XBDKFaay5tvUXJDp1-0" value="" style="shape=image;verticalLabelPosition=bottom;labelBackgroundColor=default;verticalAlign=top;aspect=fixed;imageAspect=0;image=data:image/png,iVBORw0KGgoAAAANSUhEUgAAALEAAACUCAMAAADrljhyAAAAkFBMVEX///8AfKoAmtIAdKV9sMsAeKgAmNFHmbwPodUAeqkAk88AldAAcaQAkc77/f6vzt7x+fwAbKEAjc3C4PHq9vvh8fl5v+LX6/bN3+qj0eointSmytzF2+e22u671eI8ptdSrdqcwdZott7M5vOLx+ZIjLSNtc1vo8KWzug2iLFRlbkoga2GudBdnL4Lg67Z5u7Tn2PHAAAHCElEQVR4nO1caXeiQBB0hsAGIYhRNGo8oiZeOf7/v9shGmnu7uaY5D3r62Z361W6u2qagU7nhhtuuOGGG26oC0PdBGjwN8uxbg4UeJv149rTzYKAwXratQa6WeAxXknHctZ/pYzDenCklNZENxMcvM3ICvlKa/k3JN6E9RsSlt2tbi4YBGvnTDdk7OtmUwpVD11HXgmPoj/xfyf5zVZ2rwJLywLu8T7TRysXw9E00jeUeB3p6r0eflsTesHoISrgs8TAPWa28aaPXBbGqh5kHNA9/J1hn5408ktivF0+WAnCMfd4FkIYu18TMfzR1ErxldY0kti7MxRl91kjSYBg203rq/Cwj35maCvCwhT6WEYI9tNMvtKC7vHuhoyF8aKP6AXD7dLJ5BuONvBz3xILYR++tFH9hreXGfX7IzFwj5lxZiyMN53NF0xkdj2cR9soKgr/aF4YC1Nf8w0nGfMMSGzNo59diCuMoya+3j63fi+MV8nRdkG/p4OvP7GK+aqiAKPtSwDYp/bjRVBcD2eJp2C0vbmQcuvxwp+sSvnGzx6+acdFbjdeTErq9yLxI/jVz/oiBuOuxQkX3D8i+MbPHt5JJNBftEbYGznlbL813kR/qWcmGdufrYk8liiFVTAGZ49dirFw24oX3hopsQTu8ZwqihbjxfwRWRMrIPGdm2YszHayvTfF1UTMPQJhZzC2RSvxYoutiQfgHi9ZEqsJ99GCyBusxLHNlZklcdh8zW8v8JPNCqK/lXQPUBeNr4gGyMmmgnH0C/eOORK3ES+WaInBWmWRS7j5eDF5wBEudY9I5F2jdTFElkR8rfJ0ytdY2Gaj8WKEZWwtgcRvRj5hZSOHBifcADvZ4sH4s0Bi0Wi88NGBwnKge+SNtqvKQf7/WQ3z5NYyX2IQjDtFVXxm3Fi8QNeE5YC1yiLboAEaixdbgsSgKPLd4wrjo5EJhw4UyhWhe5TyVeg3ES889GSTTiwYF462H5gNiDzIXQamNQbu8XUoLwoF9712wv4ST3gKWj8nGKdQf7zYYwOFSvLQPUpH209Z1B0vhviakF2wVumVuUdEueZ4gc3xMuEeuCr+ZlxvvMAHCgXoHgUxM4l+nc2HDxTxpXxhME6rXGO8mOMVji3ln/BFIcJsXxth757AeIUOxmnU1nwj/GSTDnCPoCQYp0SuK16MCV0nLdDxM6R7XGHWFC/wgSKxVsncXBWhpu3FHLuhkIm1ygLtHlcYdzUQ9lf4yabcAxTFkTLaLjBriBcTdI5PBONnm1oUopZ44XUJVQzXKp07hsSqlCtPuDVBYhlzD2xqS4j8WvHJ5IDAV8olWA5ig3ESFbcXlEChgjFwD59k0BBGJZHnmOeM15pwwKDoMSWuGC+GlJAZdw+iQUNUab4tIVDIWDB+Zkusmu+DXRdDSk3E1yofrNF20dhg371YkyIQdI+fS1dMyp9MkeeE06hivI651QcxGsfg8uLFcEUhHHMPheC1AmXbYD3+pQQKRfg+EQgW5KwJYHKeTFI2FDJ+1/GM9PUECmVGth/RJLbSmSvz4TmW8ZHcfBuixBkvI/jHCqVMvtrpkSabjLnHFV+nKlOZKPKERhg+0gVAbbvzRP4gEQ7wu9cQ1jTnPauXKnVBihfoOxQXxqucs45XwUhMyvZiSEtAspv7npX/yS9lyoSjHJ9Dia38f4p5ePpmjL/4RFgMfiNrtF0x4xypz0DHC2KgUBoXDSJvxzYSu4/cz9ICRXj2KA4BB3b3mbh71QHpqBSOtk3JP3hgd5+JyvakDYVMrFUysWB3n3lE1MWYONmSwTgL1M13BES88MlttypXobNjU3ZLJxwxUMTXKvk6sE8kpfGCGCgUugjCykjYJxK3ZD+7J7ZdsXsAsE8k5rGwsQNy202xD+HYMc4sbD5ioCh3jwjsGGceCkQZUAnnBuMMBCazMAqudg7JbedQvvHA7j4399MXe6rEGPcAmOXdQi4TOS9eUANFeNeRtAhB3hnKoJwTL2gbihDptUoJZeaJJGd7sUG+ggAkltRdUyB4lDObzyO3Hdo9AHq8GGefMuIFOVAoiemfr/HemCKnH47QAwXBPSBlzrNfhX4yXnj4S5lXiQnuAf8n3mrLPiXkGVtkkNwD4JlnJMl4sZ7ek0FyDwBeJrJf483nMcAk3OnwjETnW+HMxXIddy+4+GIZCXJ70QzKb6pnocUXU9N44Yhs6/zojE+6H/kDU+cnGdAXk2MiZ8WL1jB2GZT1fnSmxzmR9HV+dIYV4xp9baucMucShsF4/Lv4Vxs4zfdKb76ea9YEVoZjfJKhV+WuR3XYghwvNDMWxr+/xpj+0RntjMWJeH9WP2OT+Fb4L2BM/O6FfsbUeNHrG9rhkrL9090vAO0WEefcXTtIjG+44YYb/gz+A4afmnFNrLk4AAAAAElFTkSuQmCC;" parent="8syRLafnocFv6qWgwPiF-1" vertex="1">
          <mxGeometry x="926.28" y="712" width="83.72" height="70" as="geometry" />
        </mxCell>
        <mxCell id="ao6XBDKFaay5tvUXJDp1-1" value="" style="image;aspect=fixed;html=1;points=[];align=center;fontSize=12;image=img/lib/azure2/compute/Kubernetes_Services.svg;" parent="8syRLafnocFv6qWgwPiF-1" vertex="1">
          <mxGeometry x="890" y="831" width="68" height="60" as="geometry" />
        </mxCell>
        <mxCell id="ao6XBDKFaay5tvUXJDp1-2" value="AKS" style="text;html=1;align=center;verticalAlign=middle;resizable=0;points=[];autosize=1;strokeColor=none;fillColor=none;" parent="8syRLafnocFv6qWgwPiF-1" vertex="1">
          <mxGeometry x="897.98" y="897.5" width="50" height="30" as="geometry" />
        </mxCell>
        <mxCell id="ao6XBDKFaay5tvUXJDp1-3" value="" style="outlineConnect=0;dashed=0;verticalLabelPosition=bottom;verticalAlign=top;align=center;html=1;shape=mxgraph.aws3.android;fillColor=#8CC64F;gradientColor=none;" parent="8syRLafnocFv6qWgwPiF-1" vertex="1">
          <mxGeometry x="-10" y="885" width="73.5" height="84" as="geometry" />
        </mxCell>
        <mxCell id="ao6XBDKFaay5tvUXJDp1-6" value="Middleware" style="text;html=1;align=center;verticalAlign=middle;resizable=0;points=[];autosize=1;strokeColor=none;fillColor=none;" parent="8syRLafnocFv6qWgwPiF-1" vertex="1">
          <mxGeometry x="-13.25" y="982" width="80" height="30" as="geometry" />
        </mxCell>
        <mxCell id="ao6XBDKFaay5tvUXJDp1-7" value="Mongodb" style="text;html=1;align=center;verticalAlign=middle;resizable=0;points=[];autosize=1;strokeColor=none;fillColor=none;" parent="8syRLafnocFv6qWgwPiF-1" vertex="1">
          <mxGeometry x="50" y="1173" width="70" height="30" as="geometry" />
        </mxCell>
        <mxCell id="ao6XBDKFaay5tvUXJDp1-8" value="" style="endArrow=classic;startArrow=classic;html=1;rounded=0;" parent="8syRLafnocFv6qWgwPiF-1" edge="1">
          <mxGeometry width="50" height="50" relative="1" as="geometry">
            <mxPoint x="93" y="1095" as="sourcePoint" />
            <mxPoint x="93" y="1055" as="targetPoint" />
          </mxGeometry>
        </mxCell>
        <mxCell id="ao6XBDKFaay5tvUXJDp1-10" value="Azure Loadbalancer" style="text;html=1;align=center;verticalAlign=middle;resizable=0;points=[];autosize=1;strokeColor=none;fillColor=none;" parent="8syRLafnocFv6qWgwPiF-1" vertex="1">
          <mxGeometry x="250" y="959" width="130" height="30" as="geometry" />
        </mxCell>
        <mxCell id="ao6XBDKFaay5tvUXJDp1-11" value="Third party APIS" style="rounded=0;whiteSpace=wrap;html=1;" parent="8syRLafnocFv6qWgwPiF-1" vertex="1">
          <mxGeometry x="50" y="670" width="120" height="60" as="geometry" />
        </mxCell>
        <mxCell id="ao6XBDKFaay5tvUXJDp1-12" value="" style="endArrow=classic;startArrow=classic;html=1;rounded=0;entryX=0.25;entryY=1;entryDx=0;entryDy=0;" parent="8syRLafnocFv6qWgwPiF-1" edge="1">
          <mxGeometry width="50" height="50" relative="1" as="geometry">
            <mxPoint x="103" y="810" as="sourcePoint" />
            <mxPoint x="103" y="730" as="targetPoint" />
          </mxGeometry>
        </mxCell>
        <mxCell id="ao6XBDKFaay5tvUXJDp1-14" value="" style="shape=image;verticalLabelPosition=bottom;labelBackgroundColor=default;verticalAlign=top;aspect=fixed;imageAspect=0;image=data:image/png,iVBORw0KGgoAAAANSUhEUgAAAKQAAACUCAMAAAAqEXLeAAAAe1BMVEX///8AeNcAc9YAddYAcdUAbtX7/v/0+f3r9Pzj7/oAa9Tm8vvY6fjv9vzf7PlfoOLD2/TQ5fe51fIAaNMAfNhBkN6PuumBs+edw+xLld+uz/CCt+kAZNJopeNVmeAyidwmg9poneF7puSDr+c/gNl2rubN3/VXkt6hyu+g41KkAAAGlklEQVR4nO1bWXuCOBRtSNjFBQFFi9AqTv//L5xYy71hSVQIzsPkvPWLXk9Okrsl/fgwMDAwMDAwMDAwMDAwMDAwMDAw+J/DO/q6TPlHT5epNqL8Mwn1mPKTz3QWll7BCDtp0dLPGbFWmiYsIjwxQoiVaGDpJxY3xVJtm6eB98vxZno51dQy/TOVa2YZfVnkDqucyHJZgqlc64qHOSON5Z07zZa7a0gSNnXCIrwT2LWziRw5y8yGGevbl+EKdKQ7Z7o9Z0eBZa5JyyhtOFK218CRs9yzhqZVadHSW9nAMdNh8IYMWGpwF9ypnUBHsp9ursGeNCxptZhqLMwD0PFHB7sGP6jlVJbeiulf6ztwxem0FfdT2I9JrItdgziB05NsxpsJcT/aB33sGhxs0LIcveLhP3hmtOt4Q4ynpxyppZdawHGtl12DtXDGR7HEWEitmThyltYkLf0cOFazceQsKzr+ZzyMheQ6B7sGVwosXz3jgn+cU8cbRC1fksNHHcdt6FewqXDzv8AyPDU+3JqfI2eZAMvkaZY+nuvXFmAsrrjiz7IMMRamkxOU57BIX3R3HsTCyenJ89hU7JXFW5bNx7Wl9s9giW6ZPkwTQjjXtv7iXQUh4XoUhP1/mgmxd+p4wxLdnjotxA/aq5naXnIIxZRqxUPUcZ6mlxpiKJZqiZuXFf8BR7HAp4lES+FcfynaFNE1juOFrP4O13G8lrV43A3/6kZh2/3CUmBQy2XebAmm2I/ePk/4alTFsI1dmlCapLshx+Acvir+1eTrIO8wCIkNGdASQxP7ls7V2Sf3uoRa9qnndL3auleAlNFdb55xGdx/gQal/Fy436hlr4TGIM8K6USd7BO6OISRTu7hQVpy8w6nqMMxgKYXoVs5S6cQWLaZoI72dyT5Oi/okeJt57bLZadm4ig7S37gfi7knjD6Rq/emkuM7QRFC2DDWiQJO4n7Yt/iyEfFpkxUWq1BmshDhXMES0GGWmKZvj0r2maFTdqwhfgVle0Z8BRKWJJD0P2qQgznvAUtYaZ7LDMyBceQdGhwKRU0yFaYQncGXEqFJ3IybGD+NUT3UFZule3Ha1dInlahWCurO8oKGFwmXZLEVmVkTrYFK9nv3yiQSschrQjFhLOnFV9vGNz0BkmgTCI4KzCTuR8bAoncg8uAnwGS6IUuvUFygcEr6w0G6qwxTKGbxV2dswYPSU7Kpn287f2S4CrVSva/uVUq6Z7AColv64ss7ZXcR/JfUu7JuieWXcNgVPWmwFRlaIRZW5MPbcCJqe8Oe2IJR2NgCrZQIa26U6Cl4oeEFngFgi+gPO9FMxH77qYMhBPq5p3jbeXC5ln3vqrov0dY9ouRyU+xapBrGXakZCtxD8dtN9rOWzEH+xtVJNV+jlllq9pBgW1Frd0OwKz9SSdrx+62VItWXFT1+RZYkXWrW68EiVP5Gb8GSMRmndk4dQBzoEH36mwhfJUFco4u9gn6/t4tIMe4yE2EBWGUw2LJwEVonNLfUWal/ao0qhNm/Y6SWr7WmwuemYEljWoI64oVd2OefJMqz9ZD0Sn8KcokKb9/hlg4611ekSTNYnlgW6APH+5kOAUIfVH1V9woiuS5Ox+MpCSUX71xvGDnShL+3B1s2fIt3bQu1uA+LPliugU6+rf1qhALgmutaJ849Vu6+cPAvvSDJxTueSAgvQdYHrBHbVEs1qzkrVpimsMe39M7Z7wHm+E+UYYDQR2faDkKZ1z/zawMscDxuZZjjSzfpOUBb5WrJ98KOUdwqZbGFw1yYClo5U+385z68537UtiP5SstcHy5w2bXcg9JHE1fetHjHjGV1vz2ogssqV9/YYeF1bxa7vFNWPn6CzNMtK0Ztczwdd2YqwT0l8pW2zSgEuw0rk0vvCFUN2DGQiiLLHVjQmFDOOM6Xvv17SNHZVtCCRdij7KfOBb4jlJZ7j8Errh9nvy6sw33jHt+NWmdXGwNKxr+Y4A5Ibc8RceP32IabNUaWQrXAPbYMyMAsg2dl6J42UmojhVyj5+g5Wq6uTuweb2dutZ/EDyRpn8rEF4y65q3I8YFDfOOTmiv1uYzHCFCjve6DfAlCt/lOv0aXqxM/r8Kv8Q4Uz/++AtwIVuxpm70CFpOGtf6jibO2sX0fyv4a+Zo9bt33K/SaPH4k49NrX5NzZKz8HzArrU4tYgnLvZR81r/YWfrc+b2+fGHRsGJtU3eVXR7DQwMDAwMDAwMDAwMDAwMDAwMDKbjX/F4UM/jJwSLAAAAAElFTkSuQmCC;" parent="8syRLafnocFv6qWgwPiF-1" vertex="1">
          <mxGeometry x="924" y="1173" width="52.08" height="47" as="geometry" />
        </mxCell>
        <mxCell id="ao6XBDKFaay5tvUXJDp1-15" value="Virtual Network" style="text;html=1;align=center;verticalAlign=middle;resizable=0;points=[];autosize=1;strokeColor=none;fillColor=none;" parent="8syRLafnocFv6qWgwPiF-1" vertex="1">
          <mxGeometry x="910" y="1203" width="100" height="30" as="geometry" />
        </mxCell>
        <mxCell id="ao6XBDKFaay5tvUXJDp1-16" value="CRM" style="rounded=0;whiteSpace=wrap;html=1;" parent="8syRLafnocFv6qWgwPiF-1" vertex="1">
          <mxGeometry x="-84" y="673" width="120" height="60" as="geometry" />
        </mxCell>
        <mxCell id="ao6XBDKFaay5tvUXJDp1-17" value="" style="endArrow=classic;startArrow=classic;html=1;rounded=0;entryX=0.25;entryY=1;entryDx=0;entryDy=0;" parent="8syRLafnocFv6qWgwPiF-1" edge="1">
          <mxGeometry width="50" height="50" relative="1" as="geometry">
            <mxPoint x="-9" y="808" as="sourcePoint" />
            <mxPoint x="-9" y="728" as="targetPoint" />
          </mxGeometry>
        </mxCell>
        <mxCell id="ao6XBDKFaay5tvUXJDp1-18" value="" style="image;sketch=0;aspect=fixed;html=1;points=[];align=center;fontSize=12;image=img/lib/mscae/Docker.svg;" parent="8syRLafnocFv6qWgwPiF-1" vertex="1">
          <mxGeometry x="170" y="989" width="50" height="41" as="geometry" />
        </mxCell>
        <mxCell id="ao6XBDKFaay5tvUXJDp1-19" value="" style="rounded=0;whiteSpace=wrap;html=1;" parent="8syRLafnocFv6qWgwPiF-1" vertex="1">
          <mxGeometry x="-280" y="854" width="130" height="104" as="geometry" />
        </mxCell>
        <mxCell id="ao6XBDKFaay5tvUXJDp1-20" value="" style="shape=image;verticalLabelPosition=bottom;labelBackgroundColor=default;verticalAlign=top;aspect=fixed;imageAspect=0;image=data:image/png,iVBORw0KGgoAAAANSUhEUgAAAPEAAADRCAMAAAAquaQNAAAAUVBMVEX///9h2vtZ2ftQ1/to2/u+7v31/P/u+v627P3C7/3L8f3g9/7z/P993/yg5/z5/f/W9P6t6v2I4vze9v5y3fuR5Pzo+f7S8/6b5vx83/yp6f22NKMxAAAOIUlEQVR4nOVd2ZqrIAweQetWlzrVLu//oMdukkCQTZ0z438x37RVJBCSEJL49RWMMuvj6I2qzofwFgGGvK4+jcd9Vi7auBfSO+OMRRPY+LEvFmq86NXG7+lCjfvh2HPQIdCxvg1uu+0RtVPjvD8u0HNPZBS9735FWRPQcpNFM21ni1Hg2Kubrk/vjtUHz5YPtZbcV9O3kNH0RhrN9upFs0/PGgO9j5ajH1jNqalXL5pPzg2fjPQ+W96c5KNNt56z4Sa4CyPnfBr2XTK+iC07FkW8sp+OtOK2zbJ4ReoIXDHBjI+s+PhD6xNb1iZl/9jmp3X8/XVVCiW0cCoYr5KXoZW2WUcpUXa2McSGM3En413WvphkSCpENA/X+faAneIdJudCWSUWKjRTGXq0Ni7omqFDFy1K03znAEk8V3/PY6X3JhVKKHceU02Dltl2lggk+Ju8or3JNDM2x4Stshb4jb7+G5K8AC1WSETv+EV30bdCM79rW7wr197okRxxEdeyJJASW8TikfXMZRdZg7GK5uymki+MtQM5ohZXb6ShIF/NXylrGxZRMnuIZFVnWJ+AFbScsCjEGDNCtCAcOolduWqBFfIlncmaykUH5nhsOYAZMV9cSCJJsUZOmGDGLKxScLkXBY4opy5aaYdGmmbeo5976dfOZrcltCPfwg0EHmfnjMilWazAb5LM4nbC9+g26KHopk7eLO9IsdBm8WceG/kH2z3Hbbql86DAFUJs2I8v5l0WvZjjiIW0xO9zEHy2wUJOBUc5qIZE4uyHlhq8OPqJb7Gy1vcMXMTDXG4rscweJU6J5505ySAx7HO2yjIQDHV2uu+A94IswR/Pbi6Ns8fS8sVkfzD7ZfdCh2lEH1wFUD/1Yn0bZOo3c3ba1TqXDnfu9mnqxfrCWvCTycRUQWz6nwS7c2buubZ8IDjRw+ki29Avgj2OqVqxKNxvdsTUZy8Dr1VJ9nJXCUHvpDG8IB7lpQlLZe/vZRmn21HciEf5HfENEsV+x83CsuZrH0EFP6qJEcGxZyuhA2+PYIoxwb4k/yKKFS8881Ivv4fiTibY04bYkGLwKI/DvatKsN8B0mE7ydWEaKeTxuZyP2ROt6MY6GNnvYIsLnRm5mx1DT9igbj6ipHxwdExhLMZInzm6ztBxCQ57sUPaFYT7BZxPfEXfon1jyW8905QET9XLlrVjh3Pnd2L/hD7Y7c9HtRLb+kMJbejjso23B9f/bwPJ0jdx2MNvdVuDgbhiVk/NsLP+wCOQGHMCvRX6w9mCQR4Ypzh5X1IkZQSGrRB0sxBwYd4YlwhvA8OmhBJLajHB0/pJZTT+uEvqYdFC6WWZG1Aq8R+nRxDLD9nuA8vdOgp6w6KNGsXnxejeWPiUNslVM5PI2IAS9sr2dAAgWLSTj0h6UR1EC5yZrcvqDdUx19f94mCynzxl2R6UEv/6L6Up9QJpo8fWg6F20kminajVz506dpZcqILS6VkzGFwkpPlnNT64OS4lNOALasPhLB2ClKZ41jkDDI3WmwqqqG9Y15EPSSlLNv2UhR5niRJlmXj3zwvikvbliUcGPOZ5d3H7gvA1VZ0NSkODXgkL5HAgW48SQ0SWwiubWKscxNPpW1xunYxl2PAbcHGO+PuespbjaAQ62p9q/oBILokKZO2Sf2g9DlxXsQCsp+TP1JeJzLh5caCCw7xFKxybLPr+UVqIKUU5Zyfr1k76fJsY8EFNvJPIXO8nDpGZ0gsSzhn3enymG5h9dnZQOEA6jPpo9WJlclOxOf13QEvgAP6zYiFZIt/N8sNsU5KWhkbLeNj3of1E6nisKb6fPXM3CE7k1nBJhL5EyyKz7eq67r+hfG/6naOo8/PHi3zc7aihhpOsY9NwfKiLYejIfvnOJRtkfs0z+PTKkQfH7NrM+qPdLsz+MbpGA0dxt10eYEE0dnS7F1U5pzgp6XQn4ryAAxRVy8F2EWNJuShLE792YZuxqsFt8rp3fDEF63Z5WMNIq+G2/ku9BFNztL0Y9EZRvy+DHdfDNM7Co86xwY2mCjno2HA1xJ7lHk9kj3flSo8+Dg3CatY9VnoO22D+eEq5VghmWYq2dEBmVluEOEg0JXnHrMA+Vr1pB2M1g8LCLnW0juuW/G/EuwPsuyoxFUjQO6M6iBOoIWr7Z4fzbkmo3+ktm6B/0rev4CjJOZ3nA0Sc5UN8E08+KutdUVDWOQ+1N90oYBJ3YuJlNka9MnzUAieREpjJpj6Nf1ao4jFbmEqTU8tF2jdtIRb4Akotnw3cyet8BJMPfm+dUTz3kGGJHQFgxqKZXEFngZwp/+ZEBDIWHjdyO/Lmq7YYJtPdCBKVKgmjfBoIt69g+nx372CUwrkIgbJVpIXkzQK+c3K9izUWxmvlRUJ2BpIRrAEnXNlIICfGw5opjK1eDRRHIfZGEBXtehBRAp70TzgXmg+BNVuoo0YkN1O3ZWp6oWbPNqNGg0ca4YJSOtpfUNuDEu9yqjVUUqSWkWhqBh2nh35QZYAM2V5qMcDiTMrtoZxK1y0s3Y/1RQ1yDIUmhmbeY6ctsFmizGoLJbbiK3hdHv78McNl34vD9nlY06QC0lBIk+bfni+JYJnylk8ILTm55DRYldcYL/CuPHSMRHcKb/vFQ+cXzJysQ1d0KxEMLsZLCagKippCHTWVktYciym2SFVTJmKVojUvVIFGZrkARNsob6rCPWg0ShRAVUPvO6m9dhdkvtgCMxnEVLCM3VA1eCBP1vobsBlDwqvChtiHLU1vVhMPg20d0UjYHNUf5S0jiqxER9YJosiEtO5HeSXoUwdWUQuwavEMKAKUCqsuo07IYItXTU1HPVuXpIaytSRUUBAG/SQoyyjfnGWgrStQYvYOoYf3FWBKSajaOe9NfQogYhdngKpYevAw3kK+C7oYJ7T2BLEbdBFTfkB+vkp1pjhYK8NlqV98AcqzoBug/Pvcu5OniFQLHKhpTS6jeAMJZP1OTYO/g1IMlqrgOXcUlyobSllfBjpfYC4j8iBc8t+gUYGWDhwvbgV+arVHlE8YnWeRM3doE6yY62EhJQvYiRd/cupurek1qNJbL1ACS91/bs6zyjigA/YeVOrsB0VZy4b7BpQC+oo3+rs828I6kCFL+dNrVwYgIwpI3ifAmmbysmd7r4kUATos24E53iEGUgMS6YS2DG1xnLh5msMEDuez4oTUfEeQX9StRpKrDR2TK1ZU5hBfMonCjb5DFdYWSAcU0nlH1ouY41mxCdNPomZSvEln+wWAJStRmqOwm4Z6/ZEcJK9nP5K5kxgNRHIs/SQJdYUkywLV7Kfg1QOJAUuOp/mzNo8kOIAc+EN2SG4vzne3zren6zeoT7ej831mdHV7er7/2ZX72/vtL/98Q59IPvzc/1hXyYkDNk3u/NX7/BMYoFzJzCLv+HcaYdnixucHx/+s/Pj/cUIKKrgT8WBaGTxL4r1mXcM2Mb67DCe62/E7MmxmbMxe3Rcpsao+xtxmV/7i7390sVXK5zxd+Kr/1YMvW0ZznxneRJfO8yF+dpfvtMDe8tpe+A/z1vU5iOvkqsp8KdyUx/wyT++0OaDJaARo7qP1s4/fqDdWY75Az9fR+CS9VZ1BBYskLqzWhFP/EA9kLN9PZDz4vVAnthZzZc30fuq6/PCzmo3vWAb17E2tiqzt8MabD9bZ6//gTp7oiTp9rUUH+t2+1qKhDNg03qZwC2wDcH7q4lqrnv7/cfq3u6vtvH+6lcLntpJjfL91aHf37sGQt4nQcYi//fvk9jfO0P2914YIap38u6f/b3faX/v8Nrfe9r29y6+/b1vcX/v1Nzfe1PFrOzl3bhCE+7l/ccBG7Xf+Y7roPeYZ/RhhrVxKbDhe8z39676Y9ijiBw1L/3SeFj3ngik+EuNZvZyzv0iipVMLz/t8psobjDJsWcr21Ec/KhBmmM/Z2TwwDsgcC+uZJs6Gx9PpNvpY6WaiBvksgORZ+B5YNUWJ0w99fE+FJQJ4m5xoTAF95sdEeJ9WM7m8vLEeCLA+1DTBFunwgL4eWL8ILwPrrku2N7CH1z73ft5YryQefLTAVtbTKqOE7tZ6WJthQVT20AtC2SFEodJjIIe6ynGnER/WPElN4CUIweXgJQO/EwlHLCJ7ZKr800nW60EcZJpz1A4mYhFL3PtiBezJvGaAijV49x/d3TOTrU0ltbsxzBs5B9sJ2zKiNnkbBHkDtpZ1jJHw2PnyouzhVW9geBCKbE2j2s6KaMf866UPMc7m40BGHQvq9wVYFrMFxdSKBtXTlMlDnALp9liGaO6JyZD8yBNMGVDy7Y270yqGVRQW9/+eAAWWJi/MpOC9hi5Gx6kdEFmsrPB6LgnJ3oBZHrPjfFFeQuPJlSmqeQL4zm7AmQJbhET8QDMHdR27fum7P31cTlyOYuI37SzBzPmPAor+sEiREuhl83up1slVpffLIK/FqDFDigqjZBeeayWX6gM2T8yZ48tUymIOSR4C2X8BupYh8XRpacy+s2dI9wFjPd41QxY9i9K0zyQu4rxKnkRnbZZR6VDsbONx3JQvPfPhKYue4dZlwlOJQyozOCBq6xQ+Ct9j65gYMt9sjZ7Ez21jr/fJrZ6grbWlgJe2W/oUqIwhwZsK830wcGS4pnCQCSUsjzahj2ONsMwW0Ru6pZiRptxssquIMvUrYzUOBuM1z5HJA1RrkZuOfoBgsee3WY7NtLry3iHuyGR/7b6YZMGpGx9kxtlQbWbMl2pDxfZvwKOlLXxUKJ9uK5sezLTeWx7owxcDdI7Qx175lIulbxQ9GrjS1ZH8EWZ9dP+sarzZbNThryekiLiPlvAyfMP4tKzfzPV1pIAAAAASUVORK5CYII=;" parent="8syRLafnocFv6qWgwPiF-1" vertex="1">
          <mxGeometry x="-250.07999999999998" y="885.0000000000001" width="70.17" height="60.85" as="geometry" />
        </mxCell>
        <mxCell id="ao6XBDKFaay5tvUXJDp1-22" value="" style="shape=image;verticalLabelPosition=bottom;labelBackgroundColor=default;verticalAlign=top;aspect=fixed;imageAspect=0;image=data:image/jpeg,/9j/4AAQSkZJRgABAQAAAQABAAD/2wCEAAkGBwgHBgkIBwgKCgkLDRYPDQwMDRsUFRAWIB0iIiAdHx8kKDQsJCYxJx8fLT0tMTU3Ojo6Iys/RD84QzQ5OjcBCgoKDQwNGg8PGjclHyU3Nzc3Nzc3Nzc3Nzc3Nzc3Nzc3Nzc3Nzc3Nzc3Nzc3Nzc3Nzc3Nzc3Nzc3Nzc3Nzc3N//AABEIAMAAzAMBEQACEQEDEQH/xAAcAAABBAMBAAAAAAAAAAAAAAAAAgMFBgEEBwj/xAA/EAABAwMCAwQHBQcDBQEAAAABAAIDBAUREiEGMUETUWGBBxQiMlJxoSNCkbHRFTNDYnLB4TRTcyRUgqLxFv/EABoBAAIDAQEAAAAAAAAAAAAAAAAFAQIEAwb/xAAwEQACAgEDAwMDBAICAwEAAAAAAQIDEQQSIQUxQRMyUSJhcTRCgZEUsVLwocHhI//aAAwDAQACEQMRAD8A7igAQAIAEACABAAgDCANaor6en2fIC7uG5VowlIpKcUU/iPjyW2VXq9LQ6jjIfI7AI8MJnpunK2O6UhdqeouqW2MSq1fH3EFR+7qIqcd0UQz/wC2Uwh0zTx7psXT6lqJdngi6jiK+VBzLdaz5MlLB+DcLRHS0R7QX9GeWqvk8ub/ALNV1yuLjl1wqyfGd5/ur+jX/wAV/SKO61/uYtl3u0ZzHdK5vyqX/qodFT7xX9IFfav3P+ySpeM+IaUgi4vlA+7Kxrs/3+q4S0Gnl+00R1+oj+4nKH0l18bmivo4ZR1MR0n8Fln0mt+yRrh1aa96LPbePbLWkMkmNNIeko2/FL7unX1+Mm+rqFNnGcFmilZKwPjka9h5OaQQfNYWmnho2pprKY4gkEACABAAgAQAIAEACABAAgAQAIAweiAIO/cU22yAsqJe0qMbQx7u8+5atPpLb3wuPky36uqhc9/goM/HtxrLlG5xFPQ6sOiZzI7yU3XTa4QeOZCh9SsnYvES0Nc1zQ5hyHbgjqlzWHgY5yQ/E9r9foC+Nv28PtM/mHVq1aS7054fbyZdXT6kOO/goIbnnsU5ExnSgMGdKCcGC1BGA0oDBgtypDAkjZBDRu2y73G0yB9BVywjOXMByx3zHJcbaK7V9aO1V9lT+hnQbB6RKeo0QXhnq8p27Vu7D8+5J9T0uUfqq5Xx5HGn6nGXFvD+fBeYpGSxtfE8PY4ZDmnIISlpp4Y1TTWUOIJBAAgAQAIAEACABAAgAQAiV7Y2F73BrWjJJOwQk28IhtLlnN+K+PnvL6OxP0t5Oqep8G/qnek6aklO3+hLq+pPmFX9lBe98r3SSPc97t3Occk+acJJLCE7bby2AapDBdeELn29P6hMftIhlh+Jvd5JTradsvUiNdFduj6b8FkI8VgN5SeKbT6pU+tQN+wlOXfyuTfR37o7GKdXRtlvX8kFhbDHgNKCcBpQDQYQRgwQpIMxwSzHTFG55/lBKhyS7ssot9kbsNguM3u07mg9XnSFyepqj5Oi01r8G4zhGtcPbmgYe7JJH0XJ62HhM6LRT+UWPhqnuNik0i4iamz7cDoyR5HOxWDUuu9e3n5N+mVlD93HwX+kq4quMPid8x1CUTg4PDG0JqayjYVS4IAEACABAAgAQAIARM9jIy+Rwaxu5JOwQll4IbwsnI+NOL5LvK+joHFlA04JB3m8fkvRaLQqpb7Pd/o89rdc7Xsh7SpgbDZMhbgWAoLIWAgkfpZpKWpjqIHYkYeqpZFTjtZeEnCW5HRrdWRV9KyePqNx1B7kitrdctrHlVisjuQ5VU0dVTyQTNyx7cHw+SrCbhLciZwU1tZz+5W+WgqnQybjPsu+IJ3TarI5QmtqdcsM1tK6nPA9T0VRUn7CFz/kNlSVkI+5l41zn7UTFLwtPJh1VK2Jp+6zd348lmnrYriKNEdHJ+5kvTcPW6nId2PauH+4c/4WWWpsl5NMdLXHwSUcUcQxGxrfBoXFyk+7Oyil2RnlzKgkwggwQgMC6eokp5hLG7Dh071EoqSwwjJxeUWi310dZGHD2Xj3m9ywWVuD5GFdimuDcXM6AgAQAIAEACAME7IAqfEdy9ac6khcexbs8j7xW/T1bfqZg1F276V2OSPZplkYRu1xH4L0kXlJnnGsNoyAgELAUE4FhqCcCw1QSS1guTrdVYeSaeQ4kHd3FZtTSrY8dzVp7vTlz2L014c0OY4EHcEdUmaaG6eexqXO0C603ZtAEjd2P7l1pv8ASeX2OVtHqrjuRlFwxBT4dW/aydW8mg/3WqeslJfRwZ4aSMffyTTIo42BsbA1o5NA5LK228s0qKSwjOFBIYQQYI8EAYxtnopIZq1NbSUv+oqI2eBdv+CvGucuyKSsjHuzQn4jtsfKSR39EZXZaW1nGWqqRpycWUg9yCY/gui0U/LRzesh4TEwcbeqziWCkfkcw54GUS6fvWGyI9Q2PKR0mx3WnvNBHWUp9lww5vVh6gpHdTKmbhId03RugpRJFcjsCABAAgAKAIXiK4erQdhEftZOePuhaKK9zy+xnvs2rCKoOQHRbxevuUq8Q9jc6hoGAXah5pvRLdWmKro7bGjVaF0OeBwBQyyQsBBbAsNUE4FtYSQ0DLjsAOZUZJSz2L1wtT1MFO2KvOlh/dtPMeBSfWOMpZgNtIpRjiRZmtAHs7D80uGCwM1UAl9pvMLpCeHyc5wyuCOIw7BWhGcwfp3qQIysvdFS5Hado8fdj3+q7w085fY4yvhH7kLV8SVL8ilY2EfFzK1Q0kV7uTLPVSft4Imorqyoz29TI8HmNWB9FpjXCPtRmlZOXuZpFvcPNdMnLAgju2UogbIUlRDhnZSQWDgriH9hXLTO4iinIEo6NPxLDrtKr4ZXddjbodU6J4fZnZ2EEZG4I2I6rzP5PSr7CkEggAQAzVVEdNTyTzODY42lziegCmMXJpIrKW1Ns5bbbxJd7pcp5T772vjHc3lj8k+toVNcYrwIq73dbJ+CUHis5oK5xTBieGf4m6St+jlw4mHWR5UiFaN+S1mXA6AoJSFtagsbFLTS1MzYoWFz3clSc1BbmXjByeEXC02eGgAe7Ek/xnp4BLLr5WcLsMqqI18+SUA3+az4O5u0s4dhjzuOS4WR8o7QkbX5Ll3OpG3N2IXvpmCSVo93OMrRTy8SOF3bKKHX3Csqnlk7y0A/uxsAnVdUIrKFFlk5Pk0cEbZx8l2zg44Qgt7lOSGhJCCMCCFJXA04IK4EEK2So24bqSGNu2znkpyVOteje9+v2j1KZ2qejwzJO5Z939F5zqWn9O3dHsz0fTtR6lW190W8FLhiZQBg8kAUj0o3Q0tqioI3Ykqne1g/cHP64CZ9Lp32b34FfVLtlexeSh8MS9ncgCcCRpb/AHTjVR3VijSSxZguKVDQ0b5SuqqCRsbC+RnttAG5C70S2TyzlfDdBpEXS8L3qpaHMoZA09X4atU9bRHhyM0NHfJZSNqTg69xgf8ASB5PwPBXNdQ078nR6G9eDTZZq8VTaeSmkjeTzcNh45Xb/Ir27k8nP/Hs3bWsFutlvit8PZxjLj77zzcf08EtttdsssY1VKtfc3VyOhlGScGtV1kFFH2krt+gbzKvCt2PCRSc1Duxu2339oExTfZPHugH3h+qLdL6fK5CrU+pw+DfI7uSznciL3aBVgzU7QJwNxj3v8rXp9Q4PbLsZb6FLldypSRvYS17SHDYgjcJonlZQuaaeGIcO45U5K4G3BWIGyFJUQ4IKjTgpKDbgrEMbcPBSVZLcH3X9kX+nme7EMh7OX5Hr5HCya2n1aWvg1aK70rk/B3BpyF5Y9ShSABAHFuP6813E9SASWU+IW+Q3+ufwXp+nV+nQvl8nmOoWepe/hcEJSydjURS5xocCtc47otGWD2tM6baqGW5aXR4bFjJeei8/bYq/wAj6qt2c+C1UdBTUbMQx7kbuduSsE7JTeWMI1xj2NrCoXMY8SgAexrxhzQfmEJ47ENJ9yKrbYGgvp8kdWd3yWqu7xI4Tp8xI3GDg7LRk4EXdbuylBipyHzd/Rv+Vopoc+X2OFtu3hdytyySTvL5XF7ieZW+KUVhGNtt8mG5a4FuxHUKWkwWUWez3UVDRBUnEw5O6PH6pZfp3B5XY303buGS3Lbqsvg0EXdrRHWt1x+xOPdPR3gVpo1Eq3z2M91CsXHcqFRBJBKY5mlrx0TWMlJZQtlFxeGMuG26tkpgacFYrgbcFJVjbggoxp3NWTIG3c1JVjZ5qSp3Hg+4ftPh2jqScv0aH/1N2P5Lyerq9O6SPV6Sz1KYsmVnNI1UzNgppZ3+7GwuPkMqYx3NR+SsniLZ58lldUTyzPOXSOL3E9Sd17KMUlt/B4+Usyb/ACb1ltsl1uUFFEDmR25H3W9SuV9yqrc2daKZW2KCO30FHDQ0kVLA0iONoAz18V5Sc3ZJyZ6qEFXFRRsKhcEACABAAgCrcYiajpW1FI3DZHaZCPu//Ux0LjOW2Rh1icI7olH3JydyU5FYsBRknBnSgnADZwcCQehHRHfhhjyT9ou/a6YKs6ZDs156/NL79M090TXTenxImisZqNK5W6Gvj0vGJG+68cwu1V0q2crKY2Lkp1woJ6CTRM04PuvHIhNqrY2LKFllUoPk0Tvy36DC6r7HF8dzcprHda1uqmoZnN+IjSPquM9TTD3SX+zpHTWz9sX/AKCq4bvNOzVLbpsd7QHfkiGrolwpIiekvj+0hntLXEOBBHQ81pi0+UZmsPkacFYoxpw7kEHTPRLWa7dW0hO8Uwe0eDh+o+qRdXhtsU/ke9Jnmtx+C+hKRsQvGM7qbhm4yMdh3ZFo89v7rTo47r4r7mbVzcaJNfBw5vivVnlEdE9FdHg11weBzELD5anfm1JOr2cxgO+k1+6f8f8Af7Og60mHIa0AGtABrQAa0AGtAGrcoG1tBPTu5SMIHgeh/FXpm67IyXgpZDfBr5OXhpGzh7QO47l6bPwIkvkUgkygAQBg8soIayS9rvBgIgrDmPk2Tnp+ax36bP1QNNV+Ppl2J9rmuaHMcHAjmOqwPK4Zryn2ET07KmMxSMDw7YNRGTg9yIlBTW1jtn4ZobdJ20g7WUn2e0GQz5KL9bZatq7E06SFfL7k9rWI2Bq325lAELf+HqC9QntGCKoxlszRv5961afWWUP7GXUaSu5fc5Pc6Got1bLSVcZZJGfIjoR3helqtjbFTj2Z5u2uVcnCS5RouXU5MuPoqmEd+qIj/FpzgeIIKVdWjmlP4Yz6VNK1r5R1cckgPQIrHpGdp4UqfFzB9Vu6d+oRh6h+nZxxuF6Y8yjqfo3DW8OuLebqh5d89v7YXneq59f+D0XSseh/JadaWjINaADWgA1oANaADWgA1IA5pU/6uf8A5H/mV6aHsX4Qhn7n+f8A2Nq5AIAEACAEO5KUVZt2+6S0Jwcvi+D9Fwt08bFk6V3Sg/sW+z1EFZ9rC4OA5jqD4pRqYyr+ljOiUZ8olg/HJY8GoNaADWgDPad52QBTfSPQNmoIq8N+0hdpcf5T/lNel2uM3B9mKuqU5gprujnL+qfCEsfo3dp4rgHxRvH0WHqazp3+Ub+mfqP4OyBeaPSFW9JDdXCtRjo9h+q3dM/UIw9R/Ts4+1emPMnQfRpVt9UrKM41MkEo8QRg/kPxSLq8Gpxn9sf0/wD6PekzzGcPh5/7/Rcy9KBuGtABrQAa0AGtAGNaAEVE7YaaSV5OljS4/IDKtCLlJJeSsmlHLOdl+t7nu5uOV6dLGEIs5eQQAIAEACAEOUoqxpykqy1cFOaKWpHXtB+ST9T98Rn0/wBkix6ksQwDUgA1IANSAITjN7f/AM7U6vD81t6d+piYuofppHKidvFenR5llj9HDdXFlP8AysefosHUuNOzd0z9R/B2Ucl5lHpSD40i7bha4NAyRFqHkcrVopbdRAzayO6iSRxBvgvVnlETHDlzdarnHUA/ZuGiUd7SsuqoV1W3z4NekvdNu5dn3OqxzMkja9jg5rhkOHULyzTTw+56lNNZXYzrUAGtABrQAa0AGtAEDxRcA2EUkbvafvJjuHRMun0Zl6kvBg1tuFsXkrTSm4tQtBYEACAMEoIY2SpRUbcpIZLcL1zaatMTz7Ewx5rD1CnfVuXdGvQ2bbNr8lwLwkQ4DWgA1IANaO4ERf4462nNJNnTnJwd/Bb9FmEt6MOsSnHYyiXKx1FP7UOZo+eQNx807q1MZrnhiO3Tyh7eUS/ouhMnEr5C0/ZQOJ88BZuqyxQl8s0dLjm5v4Ott5Lzx6IYracVVHPTu5SxuYfMYVoS2yUis47otHn57DDM+Nww5hLT8xsvYp7kmeOa2toU3HVBKL3wTVVLbc9srg6EPxGO7v8AJJOo0xc8x7jrp10lDEuxZxICNilGGuGN00+wa1BOA1oAC7HMoAZmqdI9nddq6XPl9jlZao8Iq11opY5HVAJkjecu72p3RZFxUOwourlu3keHLScRYcowGTOUYJyGUYASSpRGRslSQ2IcVJUaLiDkbeKMZWGRnngsto4iYWNhriGu5CXv+aUavQNNzr7fAz02tWNthPtma8ZY5rh3tOUrace4yTT7GdY6kY6oX2BvBC3TiakoyI43GaXOCGHZvmt2n0Fl3MuEYdRroU8ReWM09dBXAyQyaj1BPtD5rXKp18NGVWqzlMc5qhcnODqWMS1dU2Noe7SzWBueu/0WbWTbSiaNJBJuRaB4rCbjKAOI8cUBt/E9ZGB7Ezu3Z8nc/rleo0FvqaeL8nl9fV6d7+GQsYLnBreZOAtbeOTIueDpNrphR0EMAA9loz4nqkls983IeVQ2QSNxux2OFxlFS7o7KTj2Iq8X2S3VDIo2Ne7Tlwd0XSrp8LVnOCluvlU8YyaR4qnI9imjbnmdRXRdKgv3M5vqc32RK0lxbXwiRrsdHM6grjPTKmWDtHUO2JsZwgDJwRg7jxR+CSIr7UTqmpRk9Y/0WurUeJGayn/iRO4cWuBDh0K1rlZRm7PkxlAZDJQGRJcOpUoGJcUFRtxUkZEOOynBXI2TzxzU8+CrZhk8sJ+ykewdzXEKJQjL3LIKco+14/kRNVVEv7yaR3zeURqhHsiJWTl3Zqu7th8l1OQlsj4nh8T3NcORGyGlJYfJVNxeY8ExRcSPjw2uYXtA99nP54WWzSJ+1mqvVtcSR1fhmMMtMUg5zZkzjGc8vphed1Em7Gvg9Dp1itfclVxO4IAoHpUtZmoqe5xNy6nOiQj4TyP4/mm3SrlGbrfkU9Vp3QVi8FF4bp/WLvC0jIZ7Z8k31MttbFGmjusWToe3mkw5M6msGp3Ibn5I/BP5Of11WaytlnJzrdt4DonNcNkVETznvk5DbSrkG1SVUlLKJIjg9R0IVJwU1hnSE3B5RarfcIq2PLTiQe8wndK7apVsY1WqaNzPdzXI7Gc8kAatZQQ1e7gGu+ILrXbKBznUpkfTcP11TVdjE1pZn97n2WhaJayuEcvucI6acpYLdb+FrbStBmaaiUc3P5Z8AlVuutm+HgY16OuC5WWSD7TbXtw6ig8m4XFai5fuO3oV4xgr944NhljdJanGOUb9m4+y7wz0W2jqEk8W9jHdoU1/+fco9THLTyvinY5kjDhzTzCcxkprcnwKpJxeH3NdxVigglSVG3FSVbG3FSVyNOKsVyNuKCpu8P2512vVLRgZa+Qdp4NG5XHUW+lU5s66ar1bVE7xE0MY1jRhrQAB4LyWW+WetSS4QtBIIA1q+kiraOalnGY5WFpCvXNwkpLwUsgpxcX5OY8O2ea1XG4sqG4fE8QtPxDnn8C38U91F6tri4+eRFRQ67JKRYGrIbCO4kqvV7RKGuw+X7Mea76aG6xHDUz21so4KasVjjSoLJjgKCRyGV8MgfG4tc05BCrJKSwyyk1yiyW69MmHZVZDJOjuhWC3TOPK7G+rUJ8PuS+QQMdfqshpMgZOBz6IJLHRxNp4Gsb7xGXHxS6yW55N0FtWB/X0yqclzGtABr8UAVPju3NlphcYm4kjIbJjqDyTTpt+JOt9mLeoVZirF3RQyU7E2RBKkrkbJUkZGyVOCo24qSrG3HHVBU6b6LrL2FFJdJm+3P7MX9A6+ZSLqt26fpJ9h90ujbD1H5L4EpGxlAAgAPJAELfaHtW+tRAamjD/ABC0aezH0szaiv8AciBB5LYYyqcZ1IdPDTA+77ZTHRQwnIwa2eWolfBW3BiFtcoZZMca5QWyLBQTkUD06KAJG33aekw395F8Dvu/JcLKIz7Giu6UO5ZbRcaatqIg14a/UPYdzS6+mUIs30XRnJFqL+qULsNfJjWgA1oANaANW7RiptlVAXBuuMtyei60S22JnO6O6to57NYapv7tzH+GcL0K1cGIJaWaXBpS2uuj505P9JBXVXVvycXTYvBqyU1Sz3qeYf8AgV0U4fKObhNeGMPjkHOKQeBYVZSXyijUvhiOyldyhkJ/oKndH5K4k/BJ8O8P1V4ukVO6GWKH3pZC0jS39Vn1OqjTW5eTvp9LK6xRxwdspYYqaFkFOxrIo2hrGNGzQOi8s5OT3M9TGKitqHlBYEACABAGHAEYPJAFYutAaSUyMB7F/UfdPct1Nu5Y8mC2rY8+Dll8qPWLtUvzkB2keWy9BRHbWkIL5brGzTBXU5ocaVBORQKgsmOByCRQcoAyH/VBbI9S1Bp6mKcHeN4cqWQ3xcS8J7JKSOow1LKiJk0ZBZIA4EeK8pODhJxfg9PCSlFSXkc1qpYNaADWgDVuE4bTlvMv2wu+nhmefg4XyxHHyRJdlMDCJUYIMZwpASSpIMsY57gxjS5zjgAdVDeO5CWXwXKz29tBTBp3ldu8pbbZvlkZ1V7ESIGOS5HUEACABAAgAQA3PEyaJ0cjQWu2IUpuLyiGk1hnGuL+GKmw1TpmkzUcriWSY3BPRy9No9ZG+OO0kea1mklTLPdFeBW38mHPwLBUFkLBUEigUEiw5QTkMoAVqQTknuHOIPUG+rVRcaY+67/b/wAJdrdF6z3w7jDRa1VLZPsXOGojnYJIJWvjI2LTlIZQcXiSwPIzjNZi8jgdv4qpY07jdaW3QmSokAd0Y3dzvJd6dPbdLEUcLtRXTHdJlWl4rdLKXS0p09MP3ATqHT9kcJiefUHOWXEW3iSid7zJmHxaD+SHo5+GR/lw8ocbf7a7+M5vzYQqvS2fH/kstVX8iv23bv8AumKv+Pb8E/5NXyLiudHUSshgmD5HnDWtBJPkolTOKzLsTG6EniPcu9itDaUCoqRqqHDYdGD9Urvuc3tXYZ0UqK3PuTSzmkEACABAAgAQAIAEAMVlNBWU76epjbJE8Yc1wzkK0ZSg90XhlZwjOO2SyjlfFnA9RbC+qtmuej5uZzfH+oT/AEfUY2fRZw/9iDV9PlX9VfKKeD34B8EzFgsFQSKBQSZBUE5FZQGQygnJnUgB2CqnpzmCZ8f9JKpOuE/csl4Wzh7Xg2ZL5cnt0urJNPd/lcVo6E/ajs9Ze1jczQklfI7VI9znd7jlaFFRWEZnJt5YguViMiSUFWJJUkG3a7XWXepFPQQulf1PIN8SegXK26uqO6bwjrVRO2WILJ1jhLhKmsMbZpNM1c4YdLjZvg3wXndXrZXvC4ieh0mijQsvmRZ1iNwIAEACABAAgAQAIAEACAEu32wgCpcScC0V1LqijxSVR6tHsO+YTDTdRsq+mX1IX6np8LeY8M5terBc7JLpr6Y9n92Zm7D59PNPKdVVcvpYju0ttL5RGB2VoM4oFBOTOpQBnUgnIakAGpAGC5BDMFykDBcggzG2SZ4jhjc97uQa0klQ2ksslRbeEi5cOej+srgye7aqWnO4j/iOHj8Pnulmp6nCH018v58DTT9MnPmzhfHk6Ta7XSWqlFPQQiKMc8cye8nqkdts7ZbpsdV1QqjtgjeXM6ggAQAIAEACABAAgAQAIAEACABACJGNkaWSMD2nm0jIKlNp5RDSawyr3fgO0XEufFEaSY/ei5fgt1PUbq+HyvuYben02crgqVx9G91gyaKaGqZ8Ljpd9dkxr6rVL3poXWdLtj7HkrtVYLzR59YtlU0AZLmxlw/EZC2w1NM/bJGKeluh7osjiSHFpBDhzB5hd1ycDGpABq2QGR+npauq/wBLS1E//FE535BVlOEPc8Fo1zn7VkmqLgriCs39RMLT1ncG/Tn9Fln1DTw/dn8Guvp+on+3H5LPbPRowAOulY55+CEY+qX29Wk+II31dJS97LjarHbrSzFBSsjPV+MuPzKWW6i25/WxlVRXVxBEkOQXI7GUACABAAgAQAIAEAf/2Q==;" parent="8syRLafnocFv6qWgwPiF-1" vertex="1">
          <mxGeometry x="-189.75" y="840" width="29.75" height="28" as="geometry" />
        </mxCell>
        <mxCell id="ao6XBDKFaay5tvUXJDp1-23" value="azure webapp" style="text;html=1;align=center;verticalAlign=middle;resizable=0;points=[];autosize=1;strokeColor=none;fillColor=none;" parent="8syRLafnocFv6qWgwPiF-1" vertex="1">
          <mxGeometry x="-220" y="813" width="100" height="30" as="geometry" />
        </mxCell>
        <mxCell id="ao6XBDKFaay5tvUXJDp1-24" value="" style="html=1;verticalLabelPosition=bottom;align=center;labelBackgroundColor=#ffffff;verticalAlign=top;strokeWidth=2;strokeColor=#0080F0;shadow=0;dashed=0;shape=mxgraph.ios7.icons.user;" parent="8syRLafnocFv6qWgwPiF-1" vertex="1">
          <mxGeometry x="-520" y="877" width="80" height="112" as="geometry" />
        </mxCell>
        <mxCell id="ao6XBDKFaay5tvUXJDp1-25" value="users" style="text;html=1;align=center;verticalAlign=middle;resizable=0;points=[];autosize=1;strokeColor=none;fillColor=none;" parent="8syRLafnocFv6qWgwPiF-1" vertex="1">
          <mxGeometry x="-505" y="982" width="50" height="30" as="geometry" />
        </mxCell>
        <mxCell id="ao6XBDKFaay5tvUXJDp1-26" value="" style="endArrow=classic;startArrow=classic;html=1;rounded=0;" parent="8syRLafnocFv6qWgwPiF-1" edge="1">
          <mxGeometry width="50" height="50" relative="1" as="geometry">
            <mxPoint x="-437" y="944" as="sourcePoint" />
            <mxPoint x="-367" y="944" as="targetPoint" />
          </mxGeometry>
        </mxCell>
        <mxCell id="ao6XBDKFaay5tvUXJDp1-27" value="" style="shape=image;verticalLabelPosition=bottom;labelBackgroundColor=default;verticalAlign=top;aspect=fixed;imageAspect=0;image=data:image/png,iVBORw0KGgoAAAANSUhEUgAAANgAAADpCAMAAABx2AnXAAABF1BMVEX///8AeNQyvt3m5uYAAAD7+/sAdtQAdNMAc9Py8vL39/fn5+fx8fHq6ur19fXb29swvd2MjIw0wd3Ly8svLy9ycnLg4OC1tbUQEBDV1dVRUVE2NjZZWVnExMS+vr6enp5oaGiBgYFJSUlCQkKqqqp8fHwnJyeMuOeRkZEAa9AdHR08PDwNDQ3y+/1sbGykpKTN5vfY8vihze8ttty35/K53OTs9fzD3fTf7/qt5PGI1+qx2uMiptocntn07efU4uVnz+Y9j9tVmd6c3+7N7vaDzuF81ekgf9YYlthlpeLF1OMZg9YnrtsgotlNlNl5sOWd0u+cwN+UxOtMoeF4uOkAZs9op9uhye24zOGTud4ZltcMiNa40eLMNZVBAAAZWElEQVR4nO1dh3bayhYVaCQEQiB6Ex1kTDUuuCUGV2yT2C/lOTdx/v873plRQQIBAiz8rhc7KwsDkmb2nDJnzhQoaosttthiiy1mofXeFXAGrevBzXvXwRHchA8G710HR3DqPggz710JJ3DtFj8ksdaZW3R337sWDgCIucXD966FA7gZiG7x+r1r4QAO3SCxwXvX4u3ROhNFYPbxjOwmLGKR3X00v9i6w7w+oPs4dKvEBh8rYOwOFF5A7/ojMetpvDBO37s2b4eWkZf4cZh1wwZeH0cbW5rfGDMTBzf/dmqt1uFgkhdm5r67af1be7RWq9e9ORtgFtPA1E673V7r3ye5w7u7QRgIWNFSqYUHg7uzf1u2oCuKs0np3ETx4MxaZkzv5GRvb+8YAC8nvf8byWJPuICaQt3CQ7b2jve/Pz9cXT5djkaj18unp6vnnf3jvZN34DGN7uHhNbEwa27weXhwfX1605u47+T4+/PVyOXycAAPAf7DNRxePuzsn8ySXKvV7d7cHCq46XYdlTAUdnM6sGKm+I5p19E7/n41dAEVD+syg8X0XMOn5/29qWK6h6fQhoNBWIU7HAbjPXW2S2F6p2ELdw8d2XSxeztXQ9YzxcnADugNL5+Px7dCy90NSIdisGlR+Ts8OHXWMrt3kx2026rEk58jD8fOZqUCxDl8OCYKfHN9F9ZpWFrwwOEY585UsBi2cPG9nyNQNXvwcK7L/xzehRd5J8wu7Oz479pQAdEi0d37Ody1S4voJMfdH4TnctKp3TkqtGudmAUv5ni0FC2F2uiT2x41R5mRbCnBlG4wey+e3SVpYXCuV5tCu5vsUt4S2hBaPJukvH+561mBFxHaZ9EGNVGcEd28CVqnhNhUkvtkZ7SsFhqExv0xMBMNMDNz1IMoIpsU2N4Duzov8I+u1y/hsEoJKELPjLtp90TA46iZMdcgrkmBHV9xCzuuBUIbYWbA5/b2/Pz86OioD//Pz28HYaMjtupg3gw4YzqR4j6+nBNm2BXa6OvtUb/fj9O8AXT/6NYYzDlpZd0BNJ0pj7O/hnkZmLle4heYixGY3NGYmThwMLWOPb4pdf+ftczLyOw5LtBT4IW+nhxzVhevzSZ27FqfF46KPdA+3y74aWa0cKS7TPHUwQzLKTTcWNVPXlfplU3gdjmP+mrJjNdFJopORsOHomHVQO9pTXlBuHj5sn980jrZ2/95OfzHShnpzRC7GYh3Oq+HNf28h73aH0dKrV8Pj9Mi4/lb3cgcHb90T3UT+7544DVfXJc75gzIycm0yMaq6LYcAToA6MDW4uW5Op56plf18mPHD85DJ7aZabmTq/UMjH2YSnyAdgt+byAQ8AUCXr9fwOwuzrUhhbgZYr2d4VqKyF1aJeIYo0NnfF4Bm5hGzNF+TMfxehEHy+7bKYXxGTpoJyMPHb3n9RRx94fNgg7H/fPtBnwHs2aIyO5aGJgVxqN20X3uc5YUxrqew7bAbsLjULEfcJQTwbFrPVfPTXt6SxjSmeIt7Tyx3o/1BMaNbKZmxhOpovvowu8sK8C+a71YavfJXjndgVFgvOPEmIeVg3rWg/P6Nk2sdTbmFT664B1Xxb1VR2Ew6hpdPTz/fLZnYjduk8Cct7HvKwqMcz09H5/YHi0aFREsjOaddvet15UExnKjnb0l+ljjihkiMMHpJQrHu6u4Dnb3x7FdWmS22jAJIg76EBA77jt+rqKJ7O6D/ennHoOTEGN5uc8vYDjjuIk9rUCM5ZbghWFwHKCIeATjuCaejFaIOrgnm8Ghiq7RwMJ9EJjzmri/y+qwzWtoM4ZSYeIlHmFezjv7n7seDdx/d+1NH3HPS01vmXkNaDyUdlwTqd7eGMf7P4bcYmrscgIz87olvDYQAU/g5OdoYRZuOQvrDkyTLH2SunJeYNPYe1g0iPEso4lmXu5zJWG1cYFhnOyM5sqMdf2y/7AJeZ0riig4V/t5aH0fzpOZZ2grc0MwKS+Fl+Nh4iz0nue5/iWIWfNyvg+biZN58xP2iU3qoZoRfg/PoWHeoNo2sUNredGbUMTujKxla47I2KE953FqmkwXrwWVl/cN6z8LrbtZCfSfc4i5duwMWExrB0Ul8t2UgbXOZu5E2pvTmXFXi0P71rXbCPFWm9/kN2BgeGPcLGInczy+Z7QwpOpNLIjcOK+ZxFrDOX6Re1kQepjcoTssftLXEGzAwMhGRnHmbp3R7uwVs4uGLRO83PeX/OYMrEWSEOL1LNV4eXgaudgZ+jh3AN06NC05Dh/84S61nnkDinjqVlaIzXJwvd7J8feHobXUWM/OTGVsXbvNvO7Z3SeF2CZ4qfMeCxah9fYfrJ2IZyaz7pk4wcvFci/8ZgaX4/mchfsze9+tp8449tlKGyfU0B3+8gphJ/eT30T6hjLtz1w0tGr9spYZyz1MJxa7Z+YNXOFPuFlY7hsQWzGkX6o1DFlZceEUd+uXddzIcqPnY9P+D+bGvAcjHP5KOg3W9c/qGW16mYuNWVkbRw3Mmo3xsMPLl51f+wp+7Z+Fzbzcn5Um8Ywe+ZWHYMElrjVkZd3jJUezsTdzXwFe6eZyDQEudvTJFGtAt3yvjuq4p76wckS/BDFT1sjWMpK5WXCSkeS4yYXp4QN9soPbWSOQsk/MzOvowsYtJ4vSO9zwU3iC1xfdm7Kub2sEHPZt7NqU5ePtNCZzOXemycPeH5h5YfPSb+FGj2tEiLZlfWPsaG7jvK3x7DxdZNnXyZ0fEEUZZMz92MTKB8NOfJAXzl7aUZNfM4mxrtGfSeuCXtmQdGXZnU3E9Iat3WL4CA8meBt37c/IDrOe4f2XKXF9NQUrntE/wgaWdBgngtWskQ1dnEHM43r9JE6J697sajwPazh7u2BODV2zOj1gJy1rqYpA6/Pk5qOw++vIPCDwuH7bclDrwejqyUQwweJiLZwHy7k+H0xqodlrKMQuHwXnw9+xwJSJYLvD2uk1SZxryrjg7afXyRQy69rhnR83G4PfOzWNLtgYT5xMJkAg0PgyuU8MW9f0MlXu8vHCead4aBCYMmFKBxh+cYZlQhM93Ojr1Pa3aetS8LyJNTjGVXUXmhYKC3NiPdOaJJYbAq0pcR3cW9HyDP9uYg2OcRmkPrHoX2hlz/81Smv452CSFkkAWEZd7Msm1uAYXIeSwCQl+hZNWH3Xq8x6PKPPFrTcEPFap0ZGeOmD4yZ2N7YwstRCpTM/z8Lsa7Jg2eHr5yklxLTuPTOCZM/vi00kfw1Lw8kMgaqA/nkZ2t531SMCrftPVrQO/gxnTcfvXuEGdFwTDSZGXIdWIENEZqmMJ8cPRF4sRBl/rGhBYPg6K6vq4ti/F5vIarf0peFkcczYriwXKLR6J8f7D1gYrAfrIEQZ07TET6+zx6Cs6zdWDOcnnG8MJmbqvAKE2OOOGc8Pl0POw4I8Rn8+TQZPmnHNyBQrivhywduKa96OWLhv8sEMGb30XziOnLGiwEPOJsHC+nQwrYMKrdG8OXgSc2xkhUDXJDFjeYrI4j/MSzKBJcTvX6yEReKnubQwL2FD8ytdrVZgY7xprEJERl8As0lWouVxD0pYOHeVCwfDS35DSzq6xoDK7CqIyOiLxyFhhg/DGb7++WKlgYorvJ+7wgXzGqp7TzeypGPs7qfm+/w6MxZENbr/dBC2ZkVouRYtkfOwv9VR7EbW4Bhi4MnMNigj3nF48c/r8P4r9uwzzq5QaC1aHueBQZiwwTU4R4a8gDg47RpPNfLSdL/fPz9zzxQViTKg31q8oNEz+iYIdrMObwE+bMyViuHB2enhzU232705PD29xadTiDPMishKxFHG4uOBWG707UKdS9/M6j1GMB4ApJ8aFVZENOPIJY2VWwT/bmevCMs9/dXWPmxIYAwfv52qucZnzplLQFz88vl16LGzXphzvTzqvMyut+vUOWIMbTicwTbC2LJAWLaO+fBwo9+0fsaA2SO27pzaR8tAd3kenqlus1nZFBbuvR7+4bWlKpNbIWBw4dARsAwuzj4zEft2zMqesHDq6vJbX1sKNj1a6YadOqgdE+P5o1sbzMhBPgef70dDl91tBhw3en7kx7ymerDunEUla0IZd9GLmBFW4dt+Hx+SZpfW7vDFSMti2HwqOranW9F+nhjazLMj8WGBt+d9/oIXLh6fXzkbJ6Wx3C72hQZaVukA8FtOHUYVUK36Qjg3HqtnPBQrPCCk1A724iL+7ceImz4z0gA8hHv6+XhhOm/FglcXl+OoLhJqdP92QLplzfuFgdL1eR+TMp5OJFwI/d9PQxcmN8UOz6l7hpc//8JNtBFWESLuaBw7P8yrF43r3z8/P7++Vo7E6vfJZyZ10q8U/n57ebocgnvk8LBa3eHD4jNMX37/Q2vy1e+w4qVk152yMsZYAx4TUWE+TcSC20X/8dvvnYerp6dLjKenp4eXnW9/idZO3Gc5famfre/QeTK+mZVfBIGIs99//At4xBLm8UfTz7PKIrb0GX3rI0XfAN6VmdFYxoIgEAnDq7WEeasliS3Dgm7R7dDB0WsxW8jcKu3aOrwzhdji4NqRI4MDFqdFvRGEwKS4YKR3fTcRxMG7wdnhTffNz8T02WMm+AP+pdpA8E5p4RkZu1qcq4v7l8HhW+f0mYXqyAsBH0OutE3NghbVch9YD17xSeYHTsT6jH82NcHv9RmSxPbka0WLwschTymiwis8uHbq+GrvVFcMLs/EyU4rqE0xT6eYm7tJGws7e4YY48OnYAl+fCaWj2GYObVjvDPI8VhpF5bUNf3iSNjJ4weXB24GgcwK6QKGJrFZxZZhp8tGjqNaGgzjUzBfwlPQD1/ZzDFbG4Qqsw/HS/0FnA0dZLdZ4BW7zh7B/U7oYZF9QIFBfOVcMud9cejskenvh+7H/GVLYmQf5lfOTGiFP9yvJKo4/Bg/3rbFFltsscUWW2yxxRZbbLHFFltsscUWW2yxxYbBrHVSnpeOx99s12/Ab1pv4MVvV39atphb+V5/otiWCrF8fPXijcgXi8VQvpJTDmYSQvhtJ7tis/nbqLxqi6eqCJWkdB0l3kRmTBTJchKheiGB16IGEZLrCGU6qz0820AoslpFIhJqR4J0PFVZ5hi22WCizWAqla3EUL3ow8TawVQkL6PUSk+rIanZXulObwHVlNXLSy1ZmQ0mmiQv/kQGdTCxIn5XRLVVHhaUSpEGIquQ6WwuC8hlaSoYIUbry4Io/BGeytWy8DaSrxkVvtOUTKul4olaPqJ+H6mFKmB4qQgVr4VycFmqVtNMOVgJdVQh+LJwnb60WyUGyCdlLxCrkr9RaBViCRRiYiiBC6khjGQymvCFZKKdKdxmkUaogFCZ4gv464K+pU2QzDoSapLviVaSS6U41ZbJQ4tCPom/I7cV6/ijGG65oHLdNDG/hLKqxKgqqd2y8BfBwHKohP8OVgCJMorBp0mVWFUxwlolwcAX2WwBFTSZRRoNoy+OoWglkiugNLi0IpIikVoRiAGbCDyyju/NoDxF8W2UhutKSGIofxUVI5FibJoYsMkrEvOHmqVVtj2mGtCuVBTp1h9EZS88rW4iVqE0jfAVdDEl5IKhxBzK4HdMCOUZSq6rcm0TcQTrqOjFT0tTTAVVieqVmhUqVZJMh5UZiNWgtCBKZmSEGivtv62QStcUoQNoOZmiJohlyrj4ejnoCwSYPDZr5dZk0WBibVVhIuW0QJU1/99G2DbpQh2/UChDCW1FyeHRbSqYzkSMbmeKmFwqlaP19gobOqHISjwYz2IxYQQKpN5mYtEYPFlAchX6y6Kkt4FJYkwaKQ3LF2SeqjSTtRR+YgHhrluINcjj5CgVLxeUzjyAJJ8vjzL54Lh1plWR8Qm59tgI7SNSR3UMVCftDfIgCj9BLOTFKlpPp0v4X169N9vIjJVEKCOl7YU2AiPrpJFci2NiPCFWJvobjVJBOaa0v68OkhXyJaBm4RV9BuchlNDSgU0AOrFitVotthVCOblElN4bUpxHZEyMR6VUECOlKQYtET1Ta6JJjMYSg3boSCjGTxOLN1SJeRHuK5hUvqyrgIFYTh67e9DnpWM+ulzOBrxeb4BG5SDu0xRbwJ6fPKszJsbUy5NHa3aS6bH2a6VHGpLyYarQzE4TEwpRxcYiSlMCtSjSnqITC0rYgWrEJLR0YJNDVdVMYvAkoZisqF9UUAi+8JPWVIiBCw9ha6DHXbS/ADGP0kAC9IclTBy6jwrDYKH4QmiaGMNAW2Ee/nQyQQXIKUdlpLWYSoyvgLT9WuQRqNTlZQMbb1tnkkVtAZ5Q63Q6+QoPjrgeyiag+9QlRsXlZDWR7UiNsceAhk3XEolOMZ2joJeXOtlErFngwUKKuWw+WgoCMdpATIYaxqEnrGQrBXAMVCoWymVr0PfrxFCtVoxJyXqNqDMq12qhdn15TYyjkiZkfyaTl5ACOUsxCQi0m/U8IVYnxKhICSVlJOcNzeeHuCIJgUQ5gu0S7myiIpZWGtVlVM6OnUdDIVaHe+MwIoDeqYYdErgYmRiBToyUX40QTxlUqiMtP27xBcdmwwf5eFBFAG8gzuUTAhMEtfHFVRvwpyqViHlQiS/LJ1JkqOqLZzu5OKmSP9LpZPFddJDsF+GVj+PEb/jiuU5WOblRyHY6EUP/S2oQ1zYuMaQyG/lpkC222GKLLbb4f0Gkkni/n2dzDgwMF+pzYjBfNmHo8YOV1VK9qQQgG9eGkjn8NjI7g+HL5kOhfHat9s5F5cS8NGe8kKzowZM31szPvnQOivV6Mik30iHSLowsJ5P16MzYLyLJJFTMLx0bGhBakNOCwH2cHMpFV0vtwWAolK/FSghlKnhUier5fKiEZMvEM9OJokIiks2na+ucClddMHgDYvpogYF4fKVkLBAjakXDAxKYGM7yBUJkrDeFRLKptvU6AoPRU1DJSzNev7oRGL/3aoYVlJr6OCmXSaoSY3zaLA9czPjH5wcw/gCjJ7oZvzYxFdOyFR3UiAMx8sSc3NasSKMAdwYn0q/M+CkMfqRPL2YerUqpjhplGJt7E1IdyTEsPV8nlg0ltdFsUEqX1LkKJoQKTUIsVY2ipJTw4XRuLVJNoqhiDgJ4omQhGKsqb0D1GjXBRIzG2TmVWCJZVJsvm66Q+tJSyNdBIeP4hA+VESp1cAvQhXyqjGKMVsxcYmCmaQlnfFGmACNWnJXxF5NyRiqpNQmmC5W6kvaKlNudOhBjcnJdirUzWHp0SZYz7RjJ7eJal+DzOioxinHGYmmUDhqJgchqPkyMCQQLTU3HI9F0XPkyJMSSRsuLlFE61gY60M4pOZMsSSEGxt7paiFpbaE6NayKOHEvwWW+SjODs78omvBp4g+mJSFN7JDJo1wiCWSCmWjFS8rMUnSa3JlN1r2UL49ieP4B6sJQ3iIq0liiCGdTx8QSyWqAQXKlUksn85qJQbvi5BFTzqSCpbJBFIIyjxOP4bRyKoMkmvEGakAfZ2MKc7Wxiov0lzJKViqGKphYzZjOSPsrJEsUTJfoBKgiEFQ8SA5JQEzpBLFhBMtKgiGLiWWjSpLKX8I5UgMxOeal1MxDR++o4LleJSmcykiGrjJRb5PaBzMgeCCGrS+VUeZDytG5bo94RRqpZpwFCkDM0GEDMSEQrdM42Z7HFaB8BbUVqGQUiKWJqRfBdCKql2MwsQRS5h99tWZlWmJR6KLz6WZo7KIycWU6xUxMzf6BSOsRKhWtK+0Zw/17Ii3Pze0QYhEtVxkEIfhDRu3FxMg8BC01UlQFiAUaabXoRl2gS0reswZ1SqjZfCaZZrDeKm8q+NMxsbxqYziRKI1nUDEDX7Php4KlxtgpBqqqhwzg71PRtPJA1Gw2URPJc3vgSWIFaJ3oJDEvKvuzOJ2oElN1IFP3AzFaI1bRiKHZxGg8O6F6RbhJn1XORttMDnsjPmbQFyOxLBCTlAcqEkvk5v6cjKqKBUUVc1gVp4lRxWatGAUFrBhVkUEZykgsq2RSKb+iinnyxhdKJgzEKmD/OrE80qM1fwHxysRFBRkmVWpqXCRU5YhKDOqYtxOREGL+kqqvEjSXFTEa1ZNVr0IMhBEi9emgmIlYSlZEWVOch5L9F+RSChMjlfXlZeziVWJC2zCZDw9NknrTBfXxGIm6RP5O1aEYlVgqmrYTiSshVQ6VocBAEaUpS2JQM6LRmBhFR5M4ikvUoRM3EgOvg7sbsAEg5guRydq4RFxoDEX4IER/iETUIGqaDiYKmp6Qcspa6AYBaQFXIJhPMIECwpMykRKWnEoMQrF2HOtskZqHGCEGXRCqRyFQ8GJi8njyhEqly5gYGB/2YBVijBG4MpokFYk3FCcWwvOGOK6Ez9N1IIaNBUXhQtyNQW+pQPE0jPrO6P+gIkm9SISSchNhzY7D3xkZNXFkAxpBvocOGkUh/p9PrKJOU0Vi5YZExiS+RNFQoFDDOWhgTpozFSMvQijdKFXJ3ENNmdXKFlLk4nSmlKeUCTqmUmiUC4oUKu1CoVDNa/6uCu8KxZypg43EtOkDKtCRGplyoSOQgqVMOUZUSKiqc6h+/Jm0+jKiuZjV6/vwTEBswUWL4TPEi1ZP2exPzSujA6atz05/EAQSlRQdT4FT3NCpxpuCt4aikqT6tA+FeKXYjtU6b7S07/8K3hm/gbLFFlv8q/E/U1X27BJw6icAAAAASUVORK5CYII=;" parent="8syRLafnocFv6qWgwPiF-1" vertex="1">
          <mxGeometry x="33.480000000000004" y="1090" width="120.52" height="130" as="geometry" />
        </mxCell>
        <mxCell id="ao6XBDKFaay5tvUXJDp1-31" value="&lt;b&gt;&lt;font style=&quot;font-size: 12px;&quot;&gt;Techonlogies:&amp;nbsp;&lt;/font&gt;&lt;/b&gt;&lt;br&gt;&lt;table border=&quot;0&quot; cellpadding=&quot;0&quot; cellspacing=&quot;0&quot; width=&quot;141&quot; style=&quot;border-collapse:&lt;br/&gt; collapse;width:106pt&quot;&gt; &lt;colgroup&gt;&lt;col width=&quot;141&quot; style=&quot;mso-width-source:userset;mso-width-alt:4933;width:106pt&quot;&gt;&lt;/colgroup&gt; &lt;tbody&gt;&lt;tr height=&quot;19&quot; style=&quot;height:14.5pt&quot;&gt;  &lt;td height=&quot;19&quot; width=&quot;141&quot; style=&quot;height:14.5pt;width:106pt&quot;&gt;1. Hyperledger Fabric&lt;/td&gt; &lt;/tr&gt; &lt;tr height=&quot;19&quot; style=&quot;height:14.5pt&quot;&gt;  &lt;td height=&quot;19&quot; style=&quot;height:14.5pt&quot;&gt;2. Azure Kubernetes service&lt;/td&gt; &lt;/tr&gt; &lt;tr height=&quot;19&quot; style=&quot;height:14.5pt&quot;&gt;  &lt;td height=&quot;19&quot; style=&quot;height:14.5pt&quot;&gt;3. Azure WebApp&lt;/td&gt; &lt;/tr&gt; &lt;tr height=&quot;19&quot; style=&quot;height:14.5pt&quot;&gt;  &lt;td height=&quot;19&quot; style=&quot;height:14.5pt&quot;&gt;4. Nodejs&lt;/td&gt; &lt;/tr&gt; &lt;tr height=&quot;19&quot; style=&quot;height:14.5pt&quot;&gt;  &lt;td height=&quot;19&quot; style=&quot;height:14.5pt&quot;&gt;5. Reactjs&lt;/td&gt; &lt;/tr&gt;&lt;/tbody&gt;&lt;/table&gt;" style="text;whiteSpace=wrap;html=1;" parent="8syRLafnocFv6qWgwPiF-1" vertex="1">
          <mxGeometry x="1050" y="799" width="240" height="370" as="geometry" />
        </mxCell>
      </root>
    </mxGraphModel>
  </diagram>
</mxfile>
